<?xml version="1.0" encoding="us-ascii" standalone="no"?><svg xmlns="http://www.w3.org/2000/svg" xmlns:xlink="http://www.w3.org/1999/xlink" contentStyleType="text/css" height="1133px" preserveAspectRatio="none" style="width:985px;height:1133px;background:#FFFFFF;" version="1.1" viewBox="0 0 985 1133" width="985px" zoomAndPan="magnify"><defs/><g><text fill="#000000" font-family="sans-serif" font-size="14" font-weight="bold" lengthAdjust="spacing" textLength="71" x="455.5" y="32.9951">OCI - IAM</text><rect fill="#F8F8FF" height="36.2969" rx="12.5" ry="12.5" style="stroke:#181818;stroke-width:1.5;" width="44" x="10" y="560.1094"/><text fill="#000000" font-family="sans-serif" font-size="14" lengthAdjust="spacing" textLength="24" x="20" y="583.1045">IAM</text><rect fill="#D3D3D3" height="36.2969" rx="12.5" ry="12.5" style="stroke:#181818;stroke-width:1.5;" width="87" x="104" y="57.2969"/><text fill="#000000" font-family="sans-serif" font-size="14" lengthAdjust="spacing" textLength="67" x="114" y="80.292">Concepts</text><text fill="#000000" font-family="sans-serif" font-size="14" lengthAdjust="spacing" textLength="318" x="244" y="61.9951">Gartner: Users x Resources X Time x Reasons</text><path d="M191,75.4453 L201,75.4453 C216,75.4453 216,57.1484 231,57.1484 L241,57.1484 " fill="none" style="stroke:#181818;stroke-width:1.0;"/><text fill="#000000" font-family="sans-serif" font-size="14" lengthAdjust="spacing" textLength="360" x="244" y="80.292">Address the mission-critical: access and compliance</text><path d="M191,75.4453 L201,75.4453 C216,75.4453 216,75.4453 231,75.4453 L241,75.4453 " fill="none" style="stroke:#181818;stroke-width:1.0;"/><text fill="#000000" font-family="sans-serif" font-size="14" lengthAdjust="spacing" textLength="203" x="244" y="98.5889">Increasingly business-aligned</text><path d="M191,75.4453 L201,75.4453 C216,75.4453 216,93.7422 231,93.7422 L241,93.7422 " fill="none" style="stroke:#181818;stroke-width:1.0;"/><path d="M54,578.2578 L64,578.2578 C79,578.2578 79,75.4453 94,75.4453 L104,75.4453 " fill="none" style="stroke:#181818;stroke-width:1.0;"/><rect fill="#D3D3D3" height="36.2969" rx="12.5" ry="12.5" style="stroke:#181818;stroke-width:1.5;" width="110" x="104" y="157.9297"/><text fill="#000000" font-family="sans-serif" font-size="14" lengthAdjust="spacing" textLength="90" x="114" y="180.9248">Components</text><text fill="#000000" font-family="sans-serif" font-size="14" lengthAdjust="spacing" textLength="67" x="267" y="116.8857">Resource</text><text fill="#000000" font-family="sans-serif" font-size="14" lengthAdjust="spacing" textLength="67" x="387" y="116.8857">Resource</text><path d="M334,112.0391 L344,112.0391 C359,112.0391 359,112.0391 374,112.0391 L384,112.0391 " fill="none" style="stroke:#181818;stroke-width:1.0;"/><path d="M214,176.0781 L224,176.0781 C239,176.0781 239,112.0391 254,112.0391 L264,112.0391 " fill="none" style="stroke:#181818;stroke-width:1.0;"/><text fill="#000000" font-family="sans-serif" font-size="14" lengthAdjust="spacing" textLength="32" x="267" y="135.1826">User</text><path d="M214,176.0781 L224,176.0781 C239,176.0781 239,130.3359 254,130.3359 L264,130.3359 " fill="none" style="stroke:#181818;stroke-width:1.0;"/><text fill="#000000" font-family="sans-serif" font-size="14" lengthAdjust="spacing" textLength="43" x="267" y="153.4795">Group</text><path d="M214,176.0781 L224,176.0781 C239,176.0781 239,148.6328 254,148.6328 L264,148.6328 " fill="none" style="stroke:#181818;stroke-width:1.0;"/><text fill="#000000" font-family="sans-serif" font-size="14" lengthAdjust="spacing" textLength="106" x="267" y="171.7764">Dynamic Group</text><path d="M214,176.0781 L224,176.0781 C239,176.0781 239,166.9297 254,166.9297 L264,166.9297 " fill="none" style="stroke:#181818;stroke-width:1.0;"/><text fill="#000000" font-family="sans-serif" font-size="14" lengthAdjust="spacing" textLength="95" x="267" y="190.0732">Compartment</text><path d="M214,176.0781 L224,176.0781 C239,176.0781 239,185.2266 254,185.2266 L264,185.2266 " fill="none" style="stroke:#181818;stroke-width:1.0;"/><text fill="#000000" font-family="sans-serif" font-size="14" lengthAdjust="spacing" textLength="59" x="267" y="208.3701">Tenancy</text><path d="M214,176.0781 L224,176.0781 C239,176.0781 239,203.5234 254,203.5234 L264,203.5234 " fill="none" style="stroke:#181818;stroke-width:1.0;"/><text fill="#000000" font-family="sans-serif" font-size="14" lengthAdjust="spacing" textLength="39" x="267" y="226.667">Policy</text><path d="M214,176.0781 L224,176.0781 C239,176.0781 239,221.8203 254,221.8203 L264,221.8203 " fill="none" style="stroke:#181818;stroke-width:1.0;"/><text fill="#000000" font-family="sans-serif" font-size="14" lengthAdjust="spacing" textLength="74" x="267" y="244.9639">Federation</text><path d="M214,176.0781 L224,176.0781 C239,176.0781 239,240.1172 254,240.1172 L264,240.1172 " fill="none" style="stroke:#181818;stroke-width:1.0;"/><path d="M54,578.2578 L64,578.2578 C79,578.2578 79,176.0781 94,176.0781 L104,176.0781 " fill="none" style="stroke:#181818;stroke-width:1.0;"/><rect fill="#D3D3D3" height="36.2969" rx="12.5" ry="12.5" style="stroke:#181818;stroke-width:1.5;" width="134" x="104" y="286.0078"/><text fill="#000000" font-family="sans-serif" font-size="14" lengthAdjust="spacing" textLength="114" x="114" y="309.0029">Identify Domains</text><text fill="#000000" font-family="sans-serif" font-size="14" lengthAdjust="spacing" textLength="282" x="291" y="263.2607">User configurations and security settings</text><path d="M238,304.1563 L248,304.1563 C263,304.1563 263,258.4141 278,258.4141 L288,258.4141 " fill="none" style="stroke:#181818;stroke-width:1.0;"/><text fill="#000000" font-family="sans-serif" font-size="14" lengthAdjust="spacing" textLength="391" x="291" y="281.5576">Container to manager users, roles, Federation, SSO, MFA</text><path d="M238,304.1563 L248,304.1563 C263,304.1563 263,276.7109 278,276.7109 L288,276.7109 " fill="none" style="stroke:#181818;stroke-width:1.0;"/><text fill="#000000" font-family="sans-serif" font-size="14" lengthAdjust="spacing" textLength="371" x="291" y="299.8545">UC: admins have control over differente environments</text><path d="M238,304.1563 L248,304.1563 C263,304.1563 263,295.0078 278,295.0078 L288,295.0078 " fill="none" style="stroke:#181818;stroke-width:1.0;"/><text fill="#000000" font-family="sans-serif" font-size="14" lengthAdjust="spacing" textLength="309" x="291" y="318.1514">Isolate resources in multi-NoteTextAlignment</text><path d="M238,304.1563 L248,304.1563 C263,304.1563 263,313.3047 278,313.3047 L288,313.3047 " fill="none" style="stroke:#181818;stroke-width:1.0;"/><text fill="#000000" font-family="sans-serif" font-size="14" lengthAdjust="spacing" textLength="449" x="291" y="336.4482">Each domain can be associated with single Oracle Cloud Account</text><path d="M238,304.1563 L248,304.1563 C263,304.1563 263,331.6016 278,331.6016 L288,331.6016 " fill="none" style="stroke:#181818;stroke-width:1.0;"/><text fill="#000000" font-family="sans-serif" font-size="14" lengthAdjust="spacing" textLength="429" x="291" y="354.7451">Each tenancy incluide Default identity in the root compartment</text><path d="M238,304.1563 L248,304.1563 C263,304.1563 263,349.8984 278,349.8984 L288,349.8984 " fill="none" style="stroke:#181818;stroke-width:1.0;"/><path d="M54,578.2578 L64,578.2578 C79,578.2578 79,304.1563 94,304.1563 L104,304.1563 " fill="none" style="stroke:#181818;stroke-width:1.0;"/><rect fill="#D3D3D3" height="36.2969" rx="12.5" ry="12.5" style="stroke:#181818;stroke-width:1.5;" width="59" x="104" y="395.7891"/><text fill="#000000" font-family="sans-serif" font-size="14" lengthAdjust="spacing" textLength="39" x="114" y="418.7842">Policy</text><text fill="#000000" font-family="sans-serif" font-size="14" lengthAdjust="spacing" textLength="47" x="216" y="373.042">Auth-Z</text><path d="M163,413.9375 L173,413.9375 C188,413.9375 188,368.1953 203,368.1953 L213,368.1953 " fill="none" style="stroke:#181818;stroke-width:1.0;"/><text fill="#000000" font-family="sans-serif" font-size="14" lengthAdjust="spacing" textLength="185" x="216" y="391.3389">by Group by Compartiment</text><path d="M163,413.9375 L173,413.9375 C188,413.9375 188,386.4922 203,386.4922 L213,386.4922 " fill="none" style="stroke:#181818;stroke-width:1.0;"/><text fill="#000000" font-family="sans-serif" font-size="14" lengthAdjust="spacing" textLength="84" x="216" y="409.6357">Permissions</text><path d="M163,413.9375 L173,413.9375 C188,413.9375 188,404.7891 203,404.7891 L213,404.7891 " fill="none" style="stroke:#181818;stroke-width:1.0;"/><text fill="#000000" font-family="sans-serif" font-size="14" lengthAdjust="spacing" textLength="78" x="216" y="427.9326">Set of rules</text><path d="M163,413.9375 L173,413.9375 C188,413.9375 188,423.0859 203,423.0859 L213,423.0859 " fill="none" style="stroke:#181818;stroke-width:1.0;"/><text fill="#000000" font-family="sans-serif" font-size="14" lengthAdjust="spacing" textLength="505" x="216" y="446.2295">verbs: inspect (list), read (metadata), use(action), manage(create, delete)</text><path d="M163,413.9375 L173,413.9375 C188,413.9375 188,441.3828 203,441.3828 L213,441.3828 " fill="none" style="stroke:#181818;stroke-width:1.0;"/><text fill="#000000" font-family="sans-serif" font-size="14" lengthAdjust="spacing" textLength="524" x="216" y="464.5264">Super admin: Allow group Administrators to manage all resources in tenancy</text><path d="M163,413.9375 L173,413.9375 C188,413.9375 188,459.6797 203,459.6797 L213,459.6797 " fill="none" style="stroke:#181818;stroke-width:1.0;"/><path d="M54,578.2578 L64,578.2578 C79,578.2578 79,413.9375 94,413.9375 L104,413.9375 " fill="none" style="stroke:#181818;stroke-width:1.0;"/><rect fill="#D3D3D3" height="36.2969" rx="12.5" ry="12.5" style="stroke:#181818;stroke-width:1.5;" width="79" x="104" y="505.5703"/><text fill="#000000" font-family="sans-serif" font-size="14" lengthAdjust="spacing" textLength="59" x="114" y="528.5654">Tenancy</text><text fill="#000000" font-family="sans-serif" font-size="14" lengthAdjust="spacing" textLength="224" x="236" y="482.8232">root Compartment: all resources</text><path d="M183,523.7188 L193,523.7188 C208,523.7188 208,477.9766 223,477.9766 L233,477.9766 " fill="none" style="stroke:#181818;stroke-width:1.0;"/><text fill="#000000" font-family="sans-serif" font-size="14" lengthAdjust="spacing" textLength="101" x="236" y="501.1201">Cloud Account</text><path d="M183,523.7188 L193,523.7188 C208,523.7188 208,496.2734 223,496.2734 L233,496.2734 " fill="none" style="stroke:#181818;stroke-width:1.0;"/><text fill="#000000" font-family="sans-serif" font-size="14" lengthAdjust="spacing" textLength="116" x="236" y="519.417">Available Domain</text><path d="M183,523.7188 L193,523.7188 C208,523.7188 208,514.5703 223,514.5703 L233,514.5703 " fill="none" style="stroke:#181818;stroke-width:1.0;"/><text fill="#000000" font-family="sans-serif" font-size="14" lengthAdjust="spacing" textLength="392" x="236" y="537.7139">Logical construct: create, organize, administer resources</text><path d="M183,523.7188 L193,523.7188 C208,523.7188 208,532.8672 223,532.8672 L233,532.8672 " fill="none" style="stroke:#181818;stroke-width:1.0;"/><text fill="#000000" font-family="sans-serif" font-size="14" lengthAdjust="spacing" textLength="80" x="236" y="556.0107">Private area</text><path d="M183,523.7188 L193,523.7188 C208,523.7188 208,551.1641 223,551.1641 L233,551.1641 " fill="none" style="stroke:#181818;stroke-width:1.0;"/><text fill="#000000" font-family="sans-serif" font-size="14" lengthAdjust="spacing" textLength="89" x="236" y="574.3076">Content: IAM</text><path d="M183,523.7188 L193,523.7188 C208,523.7188 208,569.4609 223,569.4609 L233,569.4609 " fill="none" style="stroke:#181818;stroke-width:1.0;"/><path d="M54,578.2578 L64,578.2578 C79,578.2578 79,523.7188 94,523.7188 L104,523.7188 " fill="none" style="stroke:#181818;stroke-width:1.0;"/><rect fill="#D3D3D3" height="36.2969" rx="12.5" ry="12.5" style="stroke:#181818;stroke-width:1.5;" width="52" x="104" y="633.6484"/><text fill="#000000" font-family="sans-serif" font-size="14" lengthAdjust="spacing" textLength="32" x="114" y="656.6436">User</text><text fill="#000000" font-family="sans-serif" font-size="14" lengthAdjust="spacing" textLength="63" x="209" y="592.6045">Individual</text><text fill="#000000" font-family="sans-serif" font-size="14" lengthAdjust="spacing" textLength="55" x="325" y="592.6045">Manage</text><path d="M272,587.7578 L282,587.7578 C297,587.7578 297,587.7578 312,587.7578 L322,587.7578 " fill="none" style="stroke:#181818;stroke-width:1.0;"/><path d="M156,651.7969 L166,651.7969 C181,651.7969 181,587.7578 196,587.7578 L206,587.7578 " fill="none" style="stroke:#181818;stroke-width:1.0;"/><text fill="#000000" font-family="sans-serif" font-size="14" lengthAdjust="spacing" textLength="176" x="209" y="610.9014">System (Service Account)</text><text fill="#000000" font-family="sans-serif" font-size="14" lengthAdjust="spacing" textLength="55" x="438" y="610.9014">API calls</text><path d="M385,606.0547 L395,606.0547 C410,606.0547 410,606.0547 425,606.0547 L435,606.0547 " fill="none" style="stroke:#181818;stroke-width:1.0;"/><path d="M156,651.7969 L166,651.7969 C181,651.7969 181,606.0547 196,606.0547 L206,606.0547 " fill="none" style="stroke:#181818;stroke-width:1.0;"/><text fill="#000000" font-family="sans-serif" font-size="14" lengthAdjust="spacing" textLength="78" x="209" y="674.9404">Credentials</text><text fill="#000000" font-family="sans-serif" font-size="14" lengthAdjust="spacing" textLength="173" x="340" y="629.1982">Console Password (user)</text><path d="M287,670.0938 L297,670.0938 C312,670.0938 312,624.3516 327,624.3516 L337,624.3516 " fill="none" style="stroke:#181818;stroke-width:1.0;"/><text fill="#000000" font-family="sans-serif" font-size="14" lengthAdjust="spacing" textLength="195" x="340" y="647.4951">API signing key (PEM format)</text><path d="M287,670.0938 L297,670.0938 C312,670.0938 312,642.6484 327,642.6484 L337,642.6484 " fill="none" style="stroke:#181818;stroke-width:1.0;"/><text fill="#000000" font-family="sans-serif" font-size="14" lengthAdjust="spacing" textLength="76" x="340" y="665.792">Auth token</text><path d="M287,670.0938 L297,670.0938 C312,670.0938 312,660.9453 327,660.9453 L337,660.9453 " fill="none" style="stroke:#181818;stroke-width:1.0;"/><text fill="#000000" font-family="sans-serif" font-size="14" lengthAdjust="spacing" textLength="154" x="340" y="684.0889">Customer Secret Keys</text><path d="M287,670.0938 L297,670.0938 C312,670.0938 312,679.2422 327,679.2422 L337,679.2422 " fill="none" style="stroke:#181818;stroke-width:1.0;"/><text fill="#000000" font-family="sans-serif" font-size="14" lengthAdjust="spacing" textLength="194" x="340" y="702.3857">OAuth 2.0 Client Credentials</text><path d="M287,670.0938 L297,670.0938 C312,670.0938 312,697.5391 327,697.5391 L337,697.5391 " fill="none" style="stroke:#181818;stroke-width:1.0;"/><text fill="#000000" font-family="sans-serif" font-size="14" lengthAdjust="spacing" textLength="165" x="340" y="720.6826">IAM Database Password</text><path d="M287,670.0938 L297,670.0938 C312,670.0938 312,715.8359 327,715.8359 L337,715.8359 " fill="none" style="stroke:#181818;stroke-width:1.0;"/><path d="M156,651.7969 L166,651.7969 C181,651.7969 181,670.0938 196,670.0938 L206,670.0938 " fill="none" style="stroke:#181818;stroke-width:1.0;"/><path d="M54,578.2578 L64,578.2578 C79,578.2578 79,651.7969 94,651.7969 L104,651.7969 " fill="none" style="stroke:#181818;stroke-width:1.0;"/><rect fill="#D3D3D3" height="36.2969" rx="12.5" ry="12.5" style="stroke:#181818;stroke-width:1.5;" width="63" x="104" y="743.4297"/><text fill="#000000" font-family="sans-serif" font-size="14" lengthAdjust="spacing" textLength="43" x="114" y="766.4248">Group</text><text fill="#000000" font-family="sans-serif" font-size="14" lengthAdjust="spacing" textLength="112" x="220" y="738.9795">Collection Users</text><path d="M167,761.5781 L177,761.5781 C192,761.5781 192,734.1328 207,734.1328 L217,734.1328 " fill="none" style="stroke:#181818;stroke-width:1.0;"/><text fill="#000000" font-family="sans-serif" font-size="14" lengthAdjust="spacing" textLength="373" x="220" y="757.2764">Need te same type of access resources/compartment</text><path d="M167,761.5781 L177,761.5781 C192,761.5781 192,752.4297 207,752.4297 L217,752.4297 " fill="none" style="stroke:#181818;stroke-width:1.0;"/><text fill="#000000" font-family="sans-serif" font-size="14" lengthAdjust="spacing" textLength="148" x="220" y="775.5732">Segregation of duties</text><path d="M167,761.5781 L177,761.5781 C192,761.5781 192,770.7266 207,770.7266 L217,770.7266 " fill="none" style="stroke:#181818;stroke-width:1.0;"/><text fill="#000000" font-family="sans-serif" font-size="14" lengthAdjust="spacing" textLength="144" x="220" y="793.8701">by Compartments (?)</text><path d="M167,761.5781 L177,761.5781 C192,761.5781 192,789.0234 207,789.0234 L217,789.0234 " fill="none" style="stroke:#181818;stroke-width:1.0;"/><path d="M54,578.2578 L64,578.2578 C79,578.2578 79,761.5781 94,761.5781 L104,761.5781 " fill="none" style="stroke:#181818;stroke-width:1.0;"/><rect fill="#D3D3D3" height="36.2969" rx="12.5" ry="12.5" style="stroke:#181818;stroke-width:1.5;" width="126" x="104" y="825.7656"/><text fill="#000000" font-family="sans-serif" font-size="14" lengthAdjust="spacing" textLength="106" x="114" y="848.7607">Dynamic Group</text><text fill="#000000" font-family="sans-serif" font-size="14" lengthAdjust="spacing" textLength="105" x="283" y="812.167">Change at time</text><path d="M230,843.9141 L240,843.9141 C255,843.9141 255,807.3203 270,807.3203 L280,807.3203 " fill="none" style="stroke:#181818;stroke-width:1.0;"/><text fill="#000000" font-family="sans-serif" font-size="14" lengthAdjust="spacing" textLength="135" x="283" y="830.4639">Contains resources</text><path d="M230,843.9141 L240,843.9141 C255,843.9141 255,825.6172 270,825.6172 L280,825.6172 " fill="none" style="stroke:#181818;stroke-width:1.0;"/><text fill="#000000" font-family="sans-serif" font-size="14" lengthAdjust="spacing" textLength="276" x="283" y="848.7607">Rules: resources are created or deleted</text><path d="M230,843.9141 L240,843.9141 C255,843.9141 255,843.9141 270,843.9141 L280,843.9141 " fill="none" style="stroke:#181818;stroke-width:1.0;"/><text fill="#000000" font-family="sans-serif" font-size="14" lengthAdjust="spacing" textLength="146" x="283" y="867.0576">Instances in Tenancy</text><path d="M230,843.9141 L240,843.9141 C255,843.9141 255,862.2109 270,862.2109 L280,862.2109 " fill="none" style="stroke:#181818;stroke-width:1.0;"/><text fill="#000000" font-family="sans-serif" font-size="14" lengthAdjust="spacing" textLength="183" x="283" y="885.3545">Instances act as "principal"</text><path d="M230,843.9141 L240,843.9141 C255,843.9141 255,880.5078 270,880.5078 L280,880.5078 " fill="none" style="stroke:#181818;stroke-width:1.0;"/><path d="M54,578.2578 L64,578.2578 C79,578.2578 79,843.9141 94,843.9141 L104,843.9141 " fill="none" style="stroke:#181818;stroke-width:1.0;"/><rect fill="#D3D3D3" height="36.2969" rx="12.5" ry="12.5" style="stroke:#181818;stroke-width:1.5;" width="115" x="104" y="917.25"/><text fill="#000000" font-family="sans-serif" font-size="14" lengthAdjust="spacing" textLength="95" x="114" y="940.2451">Compartment</text><text fill="#000000" font-family="sans-serif" font-size="14" lengthAdjust="spacing" textLength="104" x="272" y="903.6514">Inside Tenancy</text><path d="M219,935.3984 L229,935.3984 C244,935.3984 244,898.8047 259,898.8047 L269,898.8047 " fill="none" style="stroke:#181818;stroke-width:1.0;"/><text fill="#000000" font-family="sans-serif" font-size="14" lengthAdjust="spacing" textLength="57" x="272" y="921.9482">Isolation</text><path d="M219,935.3984 L229,935.3984 C244,935.3984 244,917.1016 259,917.1016 L269,917.1016 " fill="none" style="stroke:#181818;stroke-width:1.0;"/><text fill="#000000" font-family="sans-serif" font-size="14" lengthAdjust="spacing" textLength="114" x="272" y="940.2451">DEV, UAT, PROD</text><path d="M219,935.3984 L229,935.3984 C244,935.3984 244,935.3984 259,935.3984 L269,935.3984 " fill="none" style="stroke:#181818;stroke-width:1.0;"/><text fill="#000000" font-family="sans-serif" font-size="14" lengthAdjust="spacing" textLength="307" x="272" y="958.542">Collection of related resources (by resource)</text><path d="M219,935.3984 L229,935.3984 C244,935.3984 244,953.6953 259,953.6953 L269,953.6953 " fill="none" style="stroke:#181818;stroke-width:1.0;"/><text fill="#000000" font-family="sans-serif" font-size="14" lengthAdjust="spacing" textLength="192" x="272" y="976.8389">Measuring usage and billing</text><path d="M219,935.3984 L229,935.3984 C244,935.3984 244,971.9922 259,971.9922 L269,971.9922 " fill="none" style="stroke:#181818;stroke-width:1.0;"/><path d="M54,578.2578 L64,578.2578 C79,578.2578 79,935.3984 94,935.3984 L104,935.3984 " fill="none" style="stroke:#181818;stroke-width:1.0;"/><rect fill="#D3D3D3" height="36.2969" rx="12.5" ry="12.5" style="stroke:#181818;stroke-width:1.5;" width="87" x="104" y="981.2891"/><text fill="#000000" font-family="sans-serif" font-size="14" lengthAdjust="spacing" textLength="67" x="114" y="1004.2842">Resource</text><text fill="#000000" font-family="sans-serif" font-size="14" lengthAdjust="spacing" textLength="95" x="244" y="995.1357">Cloud objects</text><path d="M191,999.4375 L201,999.4375 C216,999.4375 216,990.2891 231,990.2891 L241,990.2891 " fill="none" style="stroke:#181818;stroke-width:1.0;"/><text fill="#000000" font-family="sans-serif" font-size="14" lengthAdjust="spacing" textLength="148" x="244" y="1013.4326">OCID: Oracle Cloud Id</text><text fill="#000000" font-family="sans-serif" font-size="14" lengthAdjust="spacing" textLength="528" x="445" y="1013.4326">ocid1.&lt;RESOURCE TYPE&gt;.&lt;REALM&gt;.[REGION][.FUTURE USE].&lt;UNIQUE ID&gt;</text><path d="M392,1008.5859 L402,1008.5859 C417,1008.5859 417,1008.5859 432,1008.5859 L442,1008.5859 " fill="none" style="stroke:#181818;stroke-width:1.0;"/><path d="M191,999.4375 L201,999.4375 C216,999.4375 216,1008.5859 231,1008.5859 L241,1008.5859 " fill="none" style="stroke:#181818;stroke-width:1.0;"/><path d="M54,578.2578 L64,578.2578 C79,578.2578 79,999.4375 94,999.4375 L104,999.4375 " fill="none" style="stroke:#181818;stroke-width:1.0;"/><rect fill="#D3D3D3" height="36.2969" rx="12.5" ry="12.5" style="stroke:#181818;stroke-width:1.5;" width="137" x="104" y="1045.3281"/><text fill="#000000" font-family="sans-serif" font-size="14" lengthAdjust="spacing" textLength="117" x="114" y="1068.3232">Auth-N vs Auth-Z</text><text fill="#000000" font-family="sans-serif" font-size="14" lengthAdjust="spacing" textLength="147" x="294" y="1040.8779">Auth-N: who you are?</text><text fill="#000000" font-family="sans-serif" font-size="14" lengthAdjust="spacing" textLength="98" x="494" y="1031.7295">Local user OCI</text><path d="M441,1036.0313 L451,1036.0313 C466,1036.0313 466,1026.8828 481,1026.8828 L491,1026.8828 " fill="none" style="stroke:#181818;stroke-width:1.0;"/><text fill="#000000" font-family="sans-serif" font-size="14" lengthAdjust="spacing" textLength="174" x="494" y="1050.0264">Federated user Azure AD</text><path d="M441,1036.0313 L451,1036.0313 C466,1036.0313 466,1045.1797 481,1045.1797 L491,1045.1797 " fill="none" style="stroke:#181818;stroke-width:1.0;"/><path d="M241,1063.4766 L251,1063.4766 C266,1063.4766 266,1036.0313 281,1036.0313 L291,1036.0313 " fill="none" style="stroke:#181818;stroke-width:1.0;"/><text fill="#000000" font-family="sans-serif" font-size="14" lengthAdjust="spacing" textLength="176" x="294" y="1068.3232">Auth-Z: what you can do?</text><text fill="#000000" font-family="sans-serif" font-size="14" lengthAdjust="spacing" textLength="108" x="523" y="1068.3232">Auth-Z: Policies</text><path d="M470,1063.4766 L480,1063.4766 C495,1063.4766 495,1063.4766 510,1063.4766 L520,1063.4766 " fill="none" style="stroke:#181818;stroke-width:1.0;"/><path d="M241,1063.4766 L251,1063.4766 C266,1063.4766 266,1063.4766 281,1063.4766 L291,1063.4766 " fill="none" style="stroke:#181818;stroke-width:1.0;"/><text fill="#000000" font-family="sans-serif" font-size="14" lengthAdjust="spacing" textLength="63" x="294" y="1086.6201">Identities</text><text fill="#000000" font-family="sans-serif" font-size="14" lengthAdjust="spacing" textLength="174" x="410" y="1086.6201">Groups, Instances, Users</text><path d="M357,1081.7734 L367,1081.7734 C382,1081.7734 382,1081.7734 397,1081.7734 L407,1081.7734 " fill="none" style="stroke:#181818;stroke-width:1.0;"/><path d="M241,1063.4766 L251,1063.4766 C266,1063.4766 266,1081.7734 281,1081.7734 L291,1081.7734 " fill="none" style="stroke:#181818;stroke-width:1.0;"/><text fill="#000000" font-family="sans-serif" font-size="14" lengthAdjust="spacing" textLength="84" x="294" y="1104.917">Permissions</text><text fill="#000000" font-family="sans-serif" font-size="14" lengthAdjust="spacing" textLength="246" x="431" y="1104.917">Policies, Compartments, Resources</text><path d="M378,1100.0703 L388,1100.0703 C403,1100.0703 403,1100.0703 418,1100.0703 L428,1100.0703 " fill="none" style="stroke:#181818;stroke-width:1.0;"/><path d="M241,1063.4766 L251,1063.4766 C266,1063.4766 266,1100.0703 281,1100.0703 L291,1100.0703 " fill="none" style="stroke:#181818;stroke-width:1.0;"/><path d="M54,578.2578 L64,578.2578 C79,578.2578 79,1063.4766 94,1063.4766 L104,1063.4766 " fill="none" style="stroke:#181818;stroke-width:1.0;"/><text fill="#888888" font-family="sans-serif" font-size="10" lengthAdjust="spacing" textLength="224" x="379" y="1118.501">Dispon&#237;vel em: https://github.com/acnaweb/oci</text><!--SRC=[RLRRSjis47tdL-ouBt96aYzrCXbEnWvZqQvIoL9ryRJrU38GiPBGW8060EKm_zIlw8zrmOieMHuzY5WGYzspPy_oitNCk5Gedh9D43ZX9CB9wBOF7UX7mvDWgRL30prXDrhzz-yM9M0QmjgvZGtFpbR2hRD5Dz7f6KiKUy75cKv44Bnx-kNk8_tkdhqRMfDX85PhTszO_WotMYMuSPRixxx1FOMWq8GmjsWi_809MfsP12ty2JEHOc5YLglg04IS6xGMt1eX5TOAhJg94KuaJ8R0aiHlCiM10jj8mUYsycHV9OOy2RMIEImoUg0tEqoAbKB-HfWfPOsg3hIEowzUBRyLmLVv69rjoiTUhbWgadsJT-en9xUbOOQA0ipBnLXBKJ_V8KV372Lt55cVqt6npA6dKoPgN7m8bB9QYbLM7YnHi9XaX4vE3yvHxhQEH3awJ6USXfGfjgB7pDUW3KPBfBycX3PCfwCs3E-YwgvR0feJSooisHRzjOuEWTwI4owMIpGK8WAghJ1QfGsAVQibenspgx9Ga6RIYSu3aMs6Frpa2z8W5BDa3Rp851AcO870h2MYaHiEByH1A4gAC38ieRzRgJCEKPBexC27Aw6c2nEP2OxGmoMZcq4KU3g_Kv3A4EqByjILUbs0_Jf5cLjt_YwV5tbPQ_zGLLeqYOpHL7Iji9YY0xq4an7QfONWMzYGuh0RJ1oqfB3kbEg1Z4ChHSSuSumCLASMItnbQ54Mh-MvxR0D72KwFAsko3PKaQ9K8KHIwXTO5H56taJUgRwQscx70M1I7XQdWkq8X0Fc5f3jaJiyz5DHxhWmqPO9oHPKjPBBfNMWLxwPFQqemYmXTtLssgoO4Z_fYLKPK7wlxXaRiVKSOtIc8NiHrLjwrFHkNt6n5JnZichoOO591MLETwNGcgBPYWJhF4whLwDnd-WfPPshmO9Lh3IKCH3t4SR4tXTjgA2-s_QFM-8zCHc-OmwjSJo4fJOfQsuWfb6XlgEgFMRMwPJodoB1u-1tpElBHiNBbzrp0brG76_4Gr10Z-YqOBO9wWYS0-sI4WlIbLfTMX-Gkf30jeoaskKRz9IkH7XNbxFajUvDSMLmLOYBFy0p9-hoDSrJw0QqRaw3exZUqjOrKvx03dpN7QYSVKsHYU-vS8_en9MAOvmuLZKHhsb1Wr9LxN10-sQ7kf5a2KusXkH5R9WyUNEW7610fxqC7NeizD6hVZb2uiSspADP6yQJKU-e3buzK1P1Dwcq2C1wLSd0aCOU3G7YLcQB9gUvi11IakKepCF1LlQiNln3DrROqGT2BpmKspwlI4Mop2-wdoRnT3IVtCOm-siSN_jrD1XUTvycyNr_zF3yrBsRp-QJ6ERJ-BdxQVxG_sCUGxztVHHCeQuFiBK7EbjQGtXPQyXrvejtKmKmq5uuV6VvE2jZDSW8fM8Z-fbHjQFUle1xPyGSxyqF6QvlzhhERnUQl-DeEO9hpjPZdsRcZX7j_IPv9Vtrg1V-jNskjvkldo3uZ8hlFix6aYat7mxyYF1-uA9xUNvvrVsrDLjdbE02Bjx3nOVmwZmyVmzV9ZFmswT1wtuys5v2wPH6C-cfM6J5v0Y-iYsZJb2-NKBmgzPiU0hJk3P2tCpluElZi7m9VjDkkj6kUFd3LUUBSE15aP1z70RrK8rLeZdnYpxiPdUTZy60cZCZxeNqKH3SUkKqEUrD_mS0]--></g></svg>