<?xml version="1.0" encoding="us-ascii" standalone="no"?><svg xmlns="http://www.w3.org/2000/svg" xmlns:xlink="http://www.w3.org/1999/xlink" contentStyleType="text/css" height="413px" preserveAspectRatio="none" style="width:1536px;height:413px;background:#FFFFFF;" version="1.1" viewBox="0 0 1536 413" width="1536px" zoomAndPan="magnify"><defs/><g><text fill="#000000" font-family="sans-serif" font-size="14" font-weight="bold" lengthAdjust="spacing" textLength="127" x="703" y="32.9951">Oracle Compute</text><rect fill="#F8F8FF" height="36.2969" rx="12.5" ry="12.5" style="stroke:#181818;stroke-width:1.5;" width="84" x="783" y="200.1523"/><text fill="#000000" font-family="sans-serif" font-size="14" lengthAdjust="spacing" textLength="64" x="793" y="223.1475">Compute</text><rect fill="#D3D3D3" height="36.2969" rx="12.5" ry="12.5" style="stroke:#181818;stroke-width:1.5;" width="98" x="917" y="163.5586"/><text fill="#000000" font-family="sans-serif" font-size="14" lengthAdjust="spacing" textLength="78" x="927" y="186.5537">Capabilities</text><text fill="#000000" font-family="sans-serif" font-size="14" lengthAdjust="spacing" textLength="145" x="1068" y="140.8115">VM: cores + memory</text><path d="M1015,181.707 L1025,181.707 C1040,181.707 1040,135.9648 1055,135.9648 L1065,135.9648 " fill="none" style="stroke:#181818;stroke-width:1.0;"/><text fill="#000000" font-family="sans-serif" font-size="14" lengthAdjust="spacing" textLength="22" x="1068" y="159.1084">BM</text><path d="M1015,181.707 L1025,181.707 C1040,181.707 1040,154.2617 1055,154.2617 L1065,154.2617 " fill="none" style="stroke:#181818;stroke-width:1.0;"/><text fill="#000000" font-family="sans-serif" font-size="14" lengthAdjust="spacing" textLength="135" x="1068" y="177.4053">Serveless functions</text><path d="M1015,181.707 L1025,181.707 C1040,181.707 1040,172.5586 1055,172.5586 L1065,172.5586 " fill="none" style="stroke:#181818;stroke-width:1.0;"/><text fill="#000000" font-family="sans-serif" font-size="14" lengthAdjust="spacing" textLength="178" x="1068" y="195.7021">Containers and K8s (OKE)</text><path d="M1015,181.707 L1025,181.707 C1040,181.707 1040,190.8555 1055,190.8555 L1065,190.8555 " fill="none" style="stroke:#181818;stroke-width:1.0;"/><text fill="#000000" font-family="sans-serif" font-size="14" lengthAdjust="spacing" textLength="109" x="1068" y="213.999">GPUs: ML, math</text><path d="M1015,181.707 L1025,181.707 C1040,181.707 1040,209.1523 1055,209.1523 L1065,209.1523 " fill="none" style="stroke:#181818;stroke-width:1.0;"/><text fill="#000000" font-family="sans-serif" font-size="14" lengthAdjust="spacing" textLength="234" x="1068" y="232.2959">HPC (High Performance Compute)</text><path d="M1015,181.707 L1025,181.707 C1040,181.707 1040,227.4492 1055,227.4492 L1065,227.4492 " fill="none" style="stroke:#181818;stroke-width:1.0;"/><path d="M867,218.3008 L877,218.3008 C892,218.3008 892,181.707 907,181.707 L917,181.707 " fill="none" style="stroke:#181818;stroke-width:1.0;"/><rect fill="#D3D3D3" height="36.2969" rx="12.5" ry="12.5" style="stroke:#181818;stroke-width:1.5;" width="64" x="917" y="255.043"/><text fill="#000000" font-family="sans-serif" font-size="14" lengthAdjust="spacing" textLength="44" x="927" y="278.0381">Shape</text><text fill="#000000" font-family="sans-serif" font-size="14" lengthAdjust="spacing" textLength="62" x="1034" y="250.5928">Standard</text><path d="M981,273.1914 L991,273.1914 C1006,273.1914 1006,245.7461 1021,245.7461 L1031,245.7461 " fill="none" style="stroke:#181818;stroke-width:1.0;"/><text fill="#000000" font-family="sans-serif" font-size="14" lengthAdjust="spacing" textLength="336" x="1034" y="268.8896">Dense IO: database, big data -&gt; HP local storage</text><path d="M981,273.1914 L991,273.1914 C1006,273.1914 1006,264.043 1021,264.043 L1031,264.043 " fill="none" style="stroke:#181818;stroke-width:1.0;"/><text fill="#000000" font-family="sans-serif" font-size="14" lengthAdjust="spacing" textLength="323" x="1034" y="287.1865">GPU Shape: ML, match -&gt; hardware acelerated</text><path d="M981,273.1914 L991,273.1914 C1006,273.1914 1006,282.3398 1021,282.3398 L1031,282.3398 " fill="none" style="stroke:#181818;stroke-width:1.0;"/><text fill="#000000" font-family="sans-serif" font-size="14" lengthAdjust="spacing" textLength="490" x="1034" y="305.4834">HPC Shape: High frequency processor and cluster -&gt; crash simulations</text><path d="M981,273.1914 L991,273.1914 C1006,273.1914 1006,300.6367 1021,300.6367 L1031,300.6367 " fill="none" style="stroke:#181818;stroke-width:1.0;"/><path d="M867,218.3008 L877,218.3008 C892,218.3008 892,273.1914 907,273.1914 L917,273.1914 " fill="none" style="stroke:#181818;stroke-width:1.0;"/><rect fill="#D3D3D3" height="36.2969" rx="12.5" ry="12.5" style="stroke:#181818;stroke-width:1.5;" width="206" x="527" y="93.8906"/><text fill="#000000" font-family="sans-serif" font-size="14" lengthAdjust="spacing" textLength="186" x="537" y="116.8857">(DVM) Dedicated VM Hosts</text><text fill="#000000" font-family="sans-serif" font-size="14" lengthAdjust="spacing" textLength="162" x="312" y="61.292">VM on a Physical Server</text><path d="M527,112.0391 L517,112.0391 C502,112.0391 502,56.4453 487,56.4453 L477,56.4453 " fill="none" style="stroke:#181818;stroke-width:1.0;"/><text fill="#000000" font-family="sans-serif" font-size="14" lengthAdjust="spacing" textLength="105" x="369" y="79.5889">Single Tenancy</text><path d="M527,112.0391 L517,112.0391 C502,112.0391 502,74.7422 487,74.7422 L477,74.7422 " fill="none" style="stroke:#181818;stroke-width:1.0;"/><text fill="#000000" font-family="sans-serif" font-size="14" lengthAdjust="spacing" textLength="359" x="115" y="97.8857">Limitations (autoscaling/instance pool/live migration)</text><path d="M527,112.0391 L517,112.0391 C502,112.0391 502,93.0391 487,93.0391 L477,93.0391 " fill="none" style="stroke:#181818;stroke-width:1.0;"/><text fill="#000000" font-family="sans-serif" font-size="14" lengthAdjust="spacing" textLength="76" x="398" y="116.1826">Not shared</text><path d="M527,112.0391 L517,112.0391 C502,112.0391 502,111.3359 487,111.3359 L477,111.3359 " fill="none" style="stroke:#181818;stroke-width:1.0;"/><rect fill="#F1F1F1" height="36.2969" rx="12.5" ry="12.5" style="stroke:#181818;stroke-width:1.5;" width="64" x="413" y="130.4844"/><text fill="#000000" font-family="sans-serif" font-size="14" lengthAdjust="spacing" textLength="44" x="423" y="153.4795">Shape</text><text fill="#000000" font-family="sans-serif" font-size="14" lengthAdjust="spacing" textLength="350" x="10" y="153.4795">Standard: DVH.Standard2 &lt;&gt; VM.Standard2 series</text><path d="M413,148.6328 L403,148.6328 C388,148.6328 388,148.6328 373,148.6328 L363,148.6328 " fill="none" style="stroke:#181818;stroke-width:1.0;"/><path d="M527,112.0391 L517,112.0391 C502,112.0391 502,148.6328 487,148.6328 L477,148.6328 " fill="none" style="stroke:#181818;stroke-width:1.0;"/><path d="M783,218.3008 L773,218.3008 C758,218.3008 758,112.0391 743,112.0391 L733,112.0391 " fill="none" style="stroke:#181818;stroke-width:1.0;"/><rect fill="#D3D3D3" height="36.2969" rx="12.5" ry="12.5" style="stroke:#181818;stroke-width:1.5;" width="89" x="644" y="195.9297"/><text fill="#000000" font-family="sans-serif" font-size="14" lengthAdjust="spacing" textLength="69" x="654" y="218.9248">VM Server</text><text fill="#000000" font-family="sans-serif" font-size="14" lengthAdjust="spacing" textLength="72" x="519" y="190.7764">Hypervisor</text><path d="M644,214.0781 L634,214.0781 C619,214.0781 619,185.9297 604,185.9297 L594,185.9297 " fill="none" style="stroke:#181818;stroke-width:1.0;"/><rect fill="#F1F1F1" height="36.2969" rx="12.5" ry="12.5" style="stroke:#181818;stroke-width:1.5;" width="64" x="530" y="205.0781"/><text fill="#000000" font-family="sans-serif" font-size="14" lengthAdjust="spacing" textLength="44" x="540" y="228.0732">Shape</text><text fill="#000000" font-family="sans-serif" font-size="14" lengthAdjust="spacing" textLength="319" x="158" y="209.7764">Standard: VM.Standard.E4.Flex (block storage)</text><path d="M530,223.2266 L520,223.2266 C505,223.2266 505,204.9297 490,204.9297 L480,204.9297 " fill="none" style="stroke:#181818;stroke-width:1.0;"/><text fill="#000000" font-family="sans-serif" font-size="14" lengthAdjust="spacing" textLength="329" x="148" y="228.0732">Dense IO: VM.DenseIO.EA.Flex (+ local storage)</text><path d="M530,223.2266 L520,223.2266 C505,223.2266 505,223.2266 490,223.2266 L480,223.2266 " fill="none" style="stroke:#181818;stroke-width:1.0;"/><text fill="#000000" font-family="sans-serif" font-size="14" lengthAdjust="spacing" textLength="116" x="361" y="246.3701">GPU: VM.GPU3.4</text><path d="M530,223.2266 L520,223.2266 C505,223.2266 505,241.5234 490,241.5234 L480,241.5234 " fill="none" style="stroke:#181818;stroke-width:1.0;"/><path d="M644,214.0781 L634,214.0781 C619,214.0781 619,223.2266 604,223.2266 L594,223.2266 " fill="none" style="stroke:#181818;stroke-width:1.0;"/><path d="M783,218.3008 L773,218.3008 C758,218.3008 758,214.0781 743,214.0781 L733,214.0781 " fill="none" style="stroke:#181818;stroke-width:1.0;"/><rect fill="#D3D3D3" height="36.2969" rx="12.5" ry="12.5" style="stroke:#181818;stroke-width:1.5;" width="183" x="550" y="302.1914"/><text fill="#000000" font-family="sans-serif" font-size="14" lengthAdjust="spacing" textLength="163" x="560" y="325.1865">Bare Metal Server (IaaS)</text><text fill="#000000" font-family="sans-serif" font-size="14" lengthAdjust="spacing" textLength="166" x="331" y="265.3701">Dedicated Physical Host</text><path d="M550,320.3398 L540,320.3398 C525,320.3398 525,260.5234 510,260.5234 L500,260.5234 " fill="none" style="stroke:#181818;stroke-width:1.0;"/><text fill="#000000" font-family="sans-serif" font-size="14" lengthAdjust="spacing" textLength="95" x="402" y="283.667">No Hypervisor</text><path d="M550,320.3398 L540,320.3398 C525,320.3398 525,278.8203 510,278.8203 L500,278.8203 " fill="none" style="stroke:#181818;stroke-width:1.0;"/><text fill="#000000" font-family="sans-serif" font-size="14" lengthAdjust="spacing" textLength="179" x="318" y="301.9639">Full control with Customer</text><path d="M550,320.3398 L540,320.3398 C525,320.3398 525,297.1172 510,297.1172 L500,297.1172 " fill="none" style="stroke:#181818;stroke-width:1.0;"/><text fill="#000000" font-family="sans-serif" font-size="14" lengthAdjust="spacing" textLength="59" x="438" y="320.2607">No noisy</text><path d="M550,320.3398 L540,320.3398 C525,320.3398 525,315.4141 510,315.4141 L500,315.4141 " fill="none" style="stroke:#181818;stroke-width:1.0;"/><rect fill="#F1F1F1" height="36.2969" rx="12.5" ry="12.5" style="stroke:#181818;stroke-width:1.5;" width="64" x="436" y="334.5625"/><text fill="#000000" font-family="sans-serif" font-size="14" lengthAdjust="spacing" textLength="44" x="446" y="357.5576">Shape</text><text fill="#000000" font-family="sans-serif" font-size="14" lengthAdjust="spacing" textLength="116" x="267" y="330.1123">Standard (OCPU)</text><path d="M436,352.7109 L426,352.7109 C411,352.7109 411,325.2656 396,325.2656 L386,325.2656 " fill="none" style="stroke:#181818;stroke-width:1.0;"/><text fill="#000000" font-family="sans-serif" font-size="14" lengthAdjust="spacing" textLength="193" x="190" y="348.4092">BM.Standard3.64 1 TB Mem</text><path d="M436,352.7109 L426,352.7109 C411,352.7109 411,343.5625 396,343.5625 L386,343.5625 " fill="none" style="stroke:#181818;stroke-width:1.0;"/><text fill="#000000" font-family="sans-serif" font-size="14" lengthAdjust="spacing" textLength="215" x="168" y="366.7061">BM.Standard.E4.128 2 TB Mem</text><path d="M436,352.7109 L426,352.7109 C411,352.7109 411,361.8594 396,361.8594 L386,361.8594 " fill="none" style="stroke:#181818;stroke-width:1.0;"/><text fill="#000000" font-family="sans-serif" font-size="14" lengthAdjust="spacing" textLength="228" x="155" y="385.0029">BM.Standard.E4.192 2,2 TB Mem</text><path d="M436,352.7109 L426,352.7109 C411,352.7109 411,380.1563 396,380.1563 L386,380.1563 " fill="none" style="stroke:#181818;stroke-width:1.0;"/><path d="M550,320.3398 L540,320.3398 C525,320.3398 525,352.7109 510,352.7109 L500,352.7109 " fill="none" style="stroke:#181818;stroke-width:1.0;"/><path d="M783,218.3008 L773,218.3008 C758,218.3008 758,320.3398 743,320.3398 L733,320.3398 " fill="none" style="stroke:#181818;stroke-width:1.0;"/><text fill="#888888" font-family="sans-serif" font-size="10" lengthAdjust="spacing" textLength="224" x="654.5" y="398.5869">Dispon&#237;vel em: https://github.com/acnaweb/oci</text><!--SRC=[VLJRJjj047ttLupeYyF58I4WQbM8vaQ0f4Gay5AXQc9FubNjNNTt7PgFwbVqnpg-9T1890_MpCxidZddx5uRYzecGeO9fevZXOq93Xuq1lpjgIJDB1quIwKiQUWBaohvzy-QOg34XyZQrFZDvahOA5juWKgQ64XyfKLJ1S9n3hz_6bxoV_W2zLwSvEnOh29xet7p0ZrCSI5YOGMPVF7m1pnFV0YK9WD7a52YzARCToVbTqQQ4P0niCnaO8MIfbpeAMbHID86K8PmVsd0VRWVDChLc-cJyM4oFeO4RLJcHjCUk2D60rFIIwKJbC5sxiOUs5c4ALKePvRFG1sMKP-a8RXzy254YmiqT0mBiIeYEBdYWo1M0SPWhDAueYsaSiyjhY3AgoFUznKr0GOyg4PBuGvlrL2WNchwbP4CDf1g5J0bIXUZ1t5cSiLuhq2ZYS2898knvCg9QMav4-whuVQV9mqU9XH1VYXB0IDbx4uPK18Gfj76Y7oQGWfT4IBaYaqp9yaaLfADHI9iUIouc5bbk8lhcaAoyNAkKwNYPYpM18bOwQAqqkkROf3C1C-U9oho3z-HxqF_UUJLKHk-N376Dx4XNVZg_pbva0fwnUicvL0mVH-TzMPhRz3nXZ7z1dV1klwiPMrKFJixS4yHt3vuWwzLoz5xBzHDx8QYdhzdNcSFSpStn8JibdPmRn5d3QTsO2tQLfrSkfhBjoCMgM4MntpDfDKgXbU-mT1ZpwYabfDRf19ciq_8bX6-NRtfKms_ksFdpBleG0lcNSQRx2_dvBNQbz3-kE9p6zh7snh-NHC_K_LJDOrHsgV969W9mww1bjS-RNUyCtSUPJ2a1RJEeNNXTqxzqtFeFiuXNsuuxirql6Pdg4op_K9Xh1QBhFJT7QuH7ZDfHS8tB8_SET-7sQ1Ema2kXLOo8McTk_oXAbf6oivIPOlYYyv9LzXQekU9qwSbPh7bra25x7qVdkR3aqjdZ7ALiVm-a7HwYW_G6rwR_GC0]--></g></svg>