<?xml version="1.0" encoding="us-ascii" standalone="no"?><svg xmlns="http://www.w3.org/2000/svg" xmlns:xlink="http://www.w3.org/1999/xlink" contentStyleType="text/css" height="380px" preserveAspectRatio="none" style="width:691px;height:380px;background:#FFFFFF;" version="1.1" viewBox="0 0 691 380" width="691px" zoomAndPan="magnify"><defs/><g><text fill="#000000" font-family="sans-serif" font-size="14" font-weight="bold" lengthAdjust="spacing" textLength="270" x="209" y="32.9951">OCI - Autonomous Database (ADB)</text><rect fill="#F8F8FF" height="36.2969" rx="12.5" ry="12.5" style="stroke:#181818;stroke-width:1.5;" width="109" x="10" y="183.375"/><text fill="#000000" font-family="sans-serif" font-size="14" lengthAdjust="spacing" textLength="89" x="20" y="206.3701">Autonomous</text><text fill="#000000" font-family="sans-serif" font-size="14" lengthAdjust="spacing" textLength="202" x="172" y="61.292">Automate many routine tasks</text><path d="M119,201.5234 L129,201.5234 C144,201.5234 144,56.4453 159,56.4453 L169,56.4453 " fill="none" style="stroke:#181818;stroke-width:1.0;"/><text fill="#000000" font-family="sans-serif" font-size="14" lengthAdjust="spacing" textLength="134" x="172" y="79.5889">Managed Database</text><path d="M119,201.5234 L129,201.5234 C144,201.5234 144,74.7422 159,74.7422 L169,74.7422 " fill="none" style="stroke:#181818;stroke-width:1.0;"/><text fill="#000000" font-family="sans-serif" font-size="14" lengthAdjust="spacing" textLength="58" x="172" y="97.8857">DBAless</text><path d="M119,201.5234 L129,201.5234 C144,201.5234 144,93.0391 159,93.0391 L169,93.0391 " fill="none" style="stroke:#181818;stroke-width:1.0;"/><text fill="#000000" font-family="sans-serif" font-size="14" lengthAdjust="spacing" textLength="391" x="172" y="116.1826">Self-driving: tuning, patching, updates, backups (use ML)</text><path d="M119,201.5234 L129,201.5234 C144,201.5234 144,111.3359 159,111.3359 L169,111.3359 " fill="none" style="stroke:#181818;stroke-width:1.0;"/><text fill="#000000" font-family="sans-serif" font-size="14" lengthAdjust="spacing" textLength="203" x="172" y="134.4795">Self-securing: external atacks</text><text fill="#000000" font-family="sans-serif" font-size="14" lengthAdjust="spacing" textLength="294" x="172" y="150.7764">applies security patches without downtime</text><text fill="#000000" font-family="sans-serif" font-size="14" lengthAdjust="spacing" textLength="69" x="172" y="167.0732">encription</text><path d="M119,201.5234 L129,201.5234 C144,201.5234 144,145.9297 159,145.9297 L169,145.9297 " fill="none" style="stroke:#181818;stroke-width:1.0;"/><text fill="#000000" font-family="sans-serif" font-size="14" lengthAdjust="spacing" textLength="493" x="172" y="185.3701">Self-repairing: 99.995% uptime, automatic failover and disaster recovery</text><path d="M119,201.5234 L129,201.5234 C144,201.5234 144,180.5234 159,180.5234 L169,180.5234 " fill="none" style="stroke:#181818;stroke-width:1.0;"/><text fill="#000000" font-family="sans-serif" font-size="14" lengthAdjust="spacing" textLength="211" x="172" y="203.667">Scaling: Automatically / manual</text><path d="M119,201.5234 L129,201.5234 C144,201.5234 144,198.8203 159,198.8203 L169,198.8203 " fill="none" style="stroke:#181818;stroke-width:1.0;"/><text fill="#000000" font-family="sans-serif" font-size="14" lengthAdjust="spacing" textLength="173" x="172" y="221.9639">Opex reduction: DBAless</text><path d="M119,201.5234 L129,201.5234 C144,201.5234 144,217.1172 159,217.1172 L169,217.1172 " fill="none" style="stroke:#181818;stroke-width:1.0;"/><text fill="#000000" font-family="sans-serif" font-size="14" lengthAdjust="spacing" textLength="420" x="172" y="240.2607">Perfomance: High performance / optimized query processing</text><path d="M119,201.5234 L129,201.5234 C144,201.5234 144,235.4141 159,235.4141 L169,235.4141 " fill="none" style="stroke:#181818;stroke-width:1.0;"/><text fill="#000000" font-family="sans-serif" font-size="14" lengthAdjust="spacing" textLength="152" x="172" y="258.5576">Servless vs Dedicated</text><path d="M119,201.5234 L129,201.5234 C144,201.5234 144,253.7109 159,253.7109 L169,253.7109 " fill="none" style="stroke:#181818;stroke-width:1.0;"/><text fill="#000000" font-family="sans-serif" font-size="14" lengthAdjust="spacing" textLength="368" x="172" y="276.8545">User provisiong (PDB) -&gt; Oracle deploy and manages</text><path d="M119,201.5234 L129,201.5234 C144,201.5234 144,272.0078 159,272.0078 L169,272.0078 " fill="none" style="stroke:#181818;stroke-width:1.0;"/><text fill="#000000" font-family="sans-serif" font-size="14" lengthAdjust="spacing" textLength="91" x="172" y="295.1514">Single tenant</text><path d="M119,201.5234 L129,201.5234 C144,201.5234 144,290.3047 159,290.3047 L169,290.3047 " fill="none" style="stroke:#181818;stroke-width:1.0;"/><rect fill="#D3D3D3" height="36.2969" rx="12.5" ry="12.5" style="stroke:#181818;stroke-width:1.5;" width="62" x="169" y="309.4531"/><text fill="#000000" font-family="sans-serif" font-size="14" lengthAdjust="spacing" textLength="42" x="179" y="332.4482">Types</text><text fill="#000000" font-family="sans-serif" font-size="14" lengthAdjust="spacing" textLength="395" x="284" y="323.2998">Data Warehouse (ADW): analytics, reporting, dw workload</text><path d="M231,327.6016 L241,327.6016 C256,327.6016 256,318.4531 271,318.4531 L281,318.4531 " fill="none" style="stroke:#181818;stroke-width:1.0;"/><text fill="#000000" font-family="sans-serif" font-size="14" lengthAdjust="spacing" textLength="301" x="284" y="341.5967">Transaction Processing (ATW): transactions</text><path d="M231,327.6016 L241,327.6016 C256,327.6016 256,336.75 271,336.75 L281,336.75 " fill="none" style="stroke:#181818;stroke-width:1.0;"/><path d="M119,201.5234 L129,201.5234 C144,201.5234 144,327.6016 159,327.6016 L169,327.6016 " fill="none" style="stroke:#181818;stroke-width:1.0;"/><text fill="#888888" font-family="sans-serif" font-size="10" lengthAdjust="spacing" textLength="224" x="232" y="365.0322">Dispon&#237;vel em: https://github.com/acnaweb/oci</text><!--SRC=[LLDTJnf157tVNt6ZQG96GAqQsOT64Aar48cWFgXfBhC3J9YTcSx7ulO_zLVqZ_NEeAKD3-pUZtFFFVVifVDeVIbKKQB9CY-yvB1tT_KDMj0BNYjTwk1WW1xdw3WqUeD-SozRQEsvXO5mHglVloekWPSvhBmtBkzqbiAlmhpDTDb1fd33vntDH9OTFEyFB-WtVFq7dC87tzDxYPv3YQe6guCNYeD7jtQG2iQeSCcBlrHISD3lIUvSUfvokMWLLbH2BNFmGT7_8HZqR9MUWYa8tnt27Daw60UDG0kDHyrTj-CisDJEtsW_XH9e6bkx5uN6IC4TR4jylGMcm8Ps9RPGw8toekGlYYjcXV52gnsovGR55hhRRNUxPv-8Jom_1DnkBXWiK4XTaQwe2YY4GnT5jfp5OBq5OoWJIk-Z2wMieHDb2oXJpPtXRzHL11OvvF-9DE5sGNsAyHnkn7859WPiYX2AZfp4JvBvHw2HOAncr4eJuNqNMqKigCWJlA3fdXSfy-28AfLNmj7G9JGcP1HeVO4xYumyLN0ZTPqsAzCbtyyw9MnAUwvG-MY5v_qHyV9VBTQlCAiDZyJZgUaIy8IMazfR8purSy93MPCAT5QIM5kVJbriOAFjMceijiqpYyfXqWCckvqQlLa4yRiikV6IqyVmyK5C9D5w68-0BX0NW-FsoT79QVjpOxOACEHpE3w3u_Fyz2W_EeF-_GnYkfarlav6rGau7Im9IxVqLin3dD3CRh52k0_9BJd4jyPit8JfzKSGhbKbh5Ob9qbk7yVR8hZHVcgqJyNdfws-yEaUfFlZE1lm1GRfgPNf8ZdaOJPiNMGZLCj0SfEbLNQbQO2jAJVz0m00]--></g></svg>