<?xml version="1.0" encoding="us-ascii" standalone="no"?><svg xmlns="http://www.w3.org/2000/svg" xmlns:xlink="http://www.w3.org/1999/xlink" contentStyleType="text/css" height="549px" preserveAspectRatio="none" style="width:949px;height:549px;background:#FFFFFF;" version="1.1" viewBox="0 0 949 549" width="949px" zoomAndPan="magnify"><defs/><g><text fill="#000000" font-family="sans-serif" font-size="14" font-weight="bold" lengthAdjust="spacing" textLength="181" x="382.5" y="32.9951">OCI - Security Services</text><rect fill="#F8F8FF" height="36.2969" rx="12.5" ry="12.5" style="stroke:#181818;stroke-width:1.5;" width="55" x="10" y="268.0625"/><text fill="#000000" font-family="sans-serif" font-size="14" lengthAdjust="spacing" textLength="35" x="20" y="291.0576">Base</text><rect fill="#D3D3D3" height="36.2969" rx="12.5" ry="12.5" style="stroke:#181818;stroke-width:1.5;" width="287" x="115" y="65.7422"/><text fill="#000000" font-family="sans-serif" font-size="14" lengthAdjust="spacing" textLength="267" x="125" y="88.7373">Identity and Access Management (IAM)</text><text fill="#000000" font-family="sans-serif" font-size="14" lengthAdjust="spacing" textLength="211" x="455" y="61.292">Authentication &amp; Authorization</text><path d="M402,83.8906 L412,83.8906 C427,83.8906 427,56.4453 442,56.4453 L452,56.4453 " fill="none" style="stroke:#181818;stroke-width:1.0;"/><text fill="#000000" font-family="sans-serif" font-size="14" lengthAdjust="spacing" textLength="190" x="455" y="79.5889">User Authentication -&gt; MFA</text><path d="M402,83.8906 L412,83.8906 C427,83.8906 427,74.7422 442,74.7422 L452,74.7422 " fill="none" style="stroke:#181818;stroke-width:1.0;"/><text fill="#000000" font-family="sans-serif" font-size="14" lengthAdjust="spacing" textLength="243" x="455" y="97.8857">Policy-based Access Control (rules)</text><path d="M402,83.8906 L412,83.8906 C427,83.8906 427,93.0391 442,93.0391 L452,93.0391 " fill="none" style="stroke:#181818;stroke-width:1.0;"/><text fill="#000000" font-family="sans-serif" font-size="14" lengthAdjust="spacing" textLength="206" x="455" y="116.1826">Identity Federation (Azure AD)</text><path d="M402,83.8906 L412,83.8906 C427,83.8906 427,111.3359 442,111.3359 L452,111.3359 " fill="none" style="stroke:#181818;stroke-width:1.0;"/><path d="M65,286.2109 L75,286.2109 C90,286.2109 90,83.8906 105,83.8906 L115,83.8906 " fill="none" style="stroke:#181818;stroke-width:1.0;"/><rect fill="#D3D3D3" height="36.2969" rx="12.5" ry="12.5" style="stroke:#181818;stroke-width:1.5;" width="106" x="115" y="138.9297"/><text fill="#000000" font-family="sans-serif" font-size="14" lengthAdjust="spacing" textLength="86" x="125" y="161.9248">Cloud Guard</text><text fill="#000000" font-family="sans-serif" font-size="14" lengthAdjust="spacing" textLength="305" x="274" y="134.4795">CSPM - Cloud Security Posture Management</text><path d="M221,157.0781 L231,157.0781 C246,157.0781 246,129.6328 261,129.6328 L271,129.6328 " fill="none" style="stroke:#181818;stroke-width:1.0;"/><text fill="#000000" font-family="sans-serif" font-size="14" lengthAdjust="spacing" textLength="314" x="274" y="152.7764">Threat Detection: identities + flags pontential</text><path d="M221,157.0781 L231,157.0781 C246,157.0781 246,147.9297 261,147.9297 L271,147.9297 " fill="none" style="stroke:#181818;stroke-width:1.0;"/><text fill="#000000" font-family="sans-serif" font-size="14" lengthAdjust="spacing" textLength="282" x="274" y="171.0732">Risk Scoring: resources + configurations</text><path d="M221,157.0781 L231,157.0781 C246,157.0781 246,166.2266 261,166.2266 L271,166.2266 " fill="none" style="stroke:#181818;stroke-width:1.0;"/><text fill="#000000" font-family="sans-serif" font-size="14" lengthAdjust="spacing" textLength="389" x="274" y="189.3701">Automated Remediation: Automatically remediate issues</text><path d="M221,157.0781 L231,157.0781 C246,157.0781 246,184.5234 261,184.5234 L271,184.5234 " fill="none" style="stroke:#181818;stroke-width:1.0;"/><path d="M65,286.2109 L75,286.2109 C90,286.2109 90,157.0781 105,157.0781 L115,157.0781 " fill="none" style="stroke:#181818;stroke-width:1.0;"/><rect fill="#D3D3D3" height="36.2969" rx="12.5" ry="12.5" style="stroke:#181818;stroke-width:1.5;" width="228" x="115" y="212.1172"/><text fill="#000000" font-family="sans-serif" font-size="14" lengthAdjust="spacing" textLength="208" x="125" y="235.1123">Web Application Firewall (WAF)</text><text fill="#000000" font-family="sans-serif" font-size="14" lengthAdjust="spacing" textLength="54" x="396" y="207.667">Internet</text><path d="M343,230.2656 L353,230.2656 C368,230.2656 368,202.8203 383,202.8203 L393,202.8203 " fill="none" style="stroke:#181818;stroke-width:1.0;"/><text fill="#000000" font-family="sans-serif" font-size="14" lengthAdjust="spacing" textLength="95" x="396" y="225.9639">Traffic filtering</text><path d="M343,230.2656 L353,230.2656 C368,230.2656 368,221.1172 383,221.1172 L393,221.1172 " fill="none" style="stroke:#181818;stroke-width:1.0;"/><text fill="#000000" font-family="sans-serif" font-size="14" lengthAdjust="spacing" textLength="110" x="396" y="244.2607">Bot Managment</text><path d="M343,230.2656 L353,230.2656 C368,230.2656 368,239.4141 383,239.4141 L393,239.4141 " fill="none" style="stroke:#181818;stroke-width:1.0;"/><text fill="#000000" font-family="sans-serif" font-size="14" lengthAdjust="spacing" textLength="115" x="396" y="262.5576">DDoS Protection</text><path d="M343,230.2656 L353,230.2656 C368,230.2656 368,257.7109 383,257.7109 L393,257.7109 " fill="none" style="stroke:#181818;stroke-width:1.0;"/><path d="M65,286.2109 L75,286.2109 C90,286.2109 90,230.2656 105,230.2656 L115,230.2656 " fill="none" style="stroke:#181818;stroke-width:1.0;"/><rect fill="#D3D3D3" height="36.2969" rx="12.5" ry="12.5" style="stroke:#181818;stroke-width:1.5;" width="145" x="115" y="321.8984"/><text fill="#000000" font-family="sans-serif" font-size="14" lengthAdjust="spacing" textLength="125" x="125" y="344.8936">Database Security</text><text fill="#000000" font-family="sans-serif" font-size="14" lengthAdjust="spacing" textLength="111" x="313" y="280.8545">LGPD/CIS/GDPR</text><path d="M260,340.0469 L270,340.0469 C285,340.0469 285,276.0078 300,276.0078 L310,276.0078 " fill="none" style="stroke:#181818;stroke-width:1.0;"/><text fill="#000000" font-family="sans-serif" font-size="14" lengthAdjust="spacing" textLength="66" x="313" y="299.1514">Data Safe</text><path d="M260,340.0469 L270,340.0469 C285,340.0469 285,294.3047 300,294.3047 L310,294.3047 " fill="none" style="stroke:#181818;stroke-width:1.0;"/><text fill="#000000" font-family="sans-serif" font-size="14" lengthAdjust="spacing" textLength="145" x="313" y="317.4482">Security Assessment</text><path d="M260,340.0469 L270,340.0469 C285,340.0469 285,312.6016 300,312.6016 L310,312.6016 " fill="none" style="stroke:#181818;stroke-width:1.0;"/><text fill="#000000" font-family="sans-serif" font-size="14" lengthAdjust="spacing" textLength="122" x="313" y="335.7451">User Assessment</text><path d="M260,340.0469 L270,340.0469 C285,340.0469 285,330.8984 300,330.8984 L310,330.8984 " fill="none" style="stroke:#181818;stroke-width:1.0;"/><text fill="#000000" font-family="sans-serif" font-size="14" lengthAdjust="spacing" textLength="132" x="313" y="354.042">Data Discovery (PII)</text><path d="M260,340.0469 L270,340.0469 C285,340.0469 285,349.1953 300,349.1953 L310,349.1953 " fill="none" style="stroke:#181818;stroke-width:1.0;"/><text fill="#000000" font-family="sans-serif" font-size="14" lengthAdjust="spacing" textLength="177" x="313" y="372.3389">Auditing (events from API)</text><path d="M260,340.0469 L270,340.0469 C285,340.0469 285,367.4922 300,367.4922 L310,367.4922 " fill="none" style="stroke:#181818;stroke-width:1.0;"/><text fill="#000000" font-family="sans-serif" font-size="14" lengthAdjust="spacing" textLength="93" x="313" y="390.6357">Data Masking</text><path d="M260,340.0469 L270,340.0469 C285,340.0469 285,385.7891 300,385.7891 L310,385.7891 " fill="none" style="stroke:#181818;stroke-width:1.0;"/><text fill="#000000" font-family="sans-serif" font-size="14" lengthAdjust="spacing" textLength="418" x="313" y="408.9326">Data Safe: Monitoring and securing your database workloads</text><path d="M260,340.0469 L270,340.0469 C285,340.0469 285,404.0859 300,404.0859 L310,404.0859 " fill="none" style="stroke:#181818;stroke-width:1.0;"/><path d="M65,286.2109 L75,286.2109 C90,286.2109 90,340.0469 105,340.0469 L115,340.0469 " fill="none" style="stroke:#181818;stroke-width:1.0;"/><rect fill="#D3D3D3" height="36.2969" rx="12.5" ry="12.5" style="stroke:#181818;stroke-width:1.5;" width="127" x="115" y="422.5313"/><text fill="#000000" font-family="sans-serif" font-size="14" lengthAdjust="spacing" textLength="107" x="125" y="445.5264">OCI Vault (HSM)</text><text fill="#000000" font-family="sans-serif" font-size="14" lengthAdjust="spacing" textLength="107" x="295" y="427.2295">Store your keys</text><path d="M242,440.6797 L252,440.6797 C267,440.6797 267,422.3828 282,422.3828 L292,422.3828 " fill="none" style="stroke:#181818;stroke-width:1.0;"/><text fill="#000000" font-family="sans-serif" font-size="14" lengthAdjust="spacing" textLength="374" x="295" y="445.5264">Secure Secret Storage: managing, encryption, policies</text><text fill="#000000" font-family="sans-serif" font-size="14" lengthAdjust="spacing" textLength="215" x="722" y="436.3779">(HSM) Hardware Security Model</text><path d="M669,440.6797 L679,440.6797 C694,440.6797 694,431.5313 709,431.5313 L719,431.5313 " fill="none" style="stroke:#181818;stroke-width:1.0;"/><text fill="#000000" font-family="sans-serif" font-size="14" lengthAdjust="spacing" textLength="161" x="722" y="454.6748">SoftwareSecurity Model</text><path d="M669,440.6797 L679,440.6797 C694,440.6797 694,449.8281 709,449.8281 L719,449.8281 " fill="none" style="stroke:#181818;stroke-width:1.0;"/><path d="M242,440.6797 L252,440.6797 C267,440.6797 267,440.6797 282,440.6797 L292,440.6797 " fill="none" style="stroke:#181818;stroke-width:1.0;"/><text fill="#000000" font-family="sans-serif" font-size="14" lengthAdjust="spacing" textLength="352" x="295" y="463.8232">Key Management: for OCI services and applications</text><path d="M242,440.6797 L252,440.6797 C267,440.6797 267,458.9766 282,458.9766 L292,458.9766 " fill="none" style="stroke:#181818;stroke-width:1.0;"/><path d="M65,286.2109 L75,286.2109 C90,286.2109 90,440.6797 105,440.6797 L115,440.6797 " fill="none" style="stroke:#181818;stroke-width:1.0;"/><rect fill="#D3D3D3" height="36.2969" rx="12.5" ry="12.5" style="stroke:#181818;stroke-width:1.5;" width="124" x="115" y="478.8281"/><text fill="#000000" font-family="sans-serif" font-size="14" lengthAdjust="spacing" textLength="104" x="125" y="501.8232">Security Zones</text><text fill="#000000" font-family="sans-serif" font-size="14" lengthAdjust="spacing" textLength="251" x="292" y="492.6748">Security Best Practices Enforcement</text><path d="M239,496.9766 L249,496.9766 C264,496.9766 264,487.8281 279,487.8281 L289,487.8281 " fill="none" style="stroke:#181818;stroke-width:1.0;"/><text fill="#000000" font-family="sans-serif" font-size="14" lengthAdjust="spacing" textLength="252" x="292" y="510.9717">Prevention of Non-Compliant Actions</text><path d="M239,496.9766 L249,496.9766 C264,496.9766 264,506.125 279,506.125 L289,506.125 " fill="none" style="stroke:#181818;stroke-width:1.0;"/><path d="M65,286.2109 L75,286.2109 C90,286.2109 90,496.9766 105,496.9766 L115,496.9766 " fill="none" style="stroke:#181818;stroke-width:1.0;"/><text fill="#888888" font-family="sans-serif" font-size="10" lengthAdjust="spacing" textLength="224" x="361" y="534.4072">Dispon&#237;vel em: https://github.com/acnaweb/oci</text><!--SRC=[PLJRRjiu47tNLmnQOA6qTPnaaw3GGr7PYXstrgvWEIdGHL7GrCWc8f46IJbG_sc_eZ_M4MdBGGo_M7CxCsVEyBEnJDjQoA9cso2mmbO8R_uTps00EV962zlI7xqJ7CsRe5JAeeP4cAsIl__VOGLOHx2nTckYuN0jxAPPdNDL3ncNx1bNGyL54Bpxx-ta8_qcFs3439A1B7EntjYfPkqFc1KeROV4P04n9oW3APDiZJKv89p5wHdblFi9SMCtNIndLYW9Vpc3qkAN-_On3uPQV1Ku-0Jf9FR-J5M2juCLTTAZZPMqMbKGwgP2imVhsvfWWTeN2kDVZKQ8axEJASQLQWgODamNFd-SPodnwEqzcvaojYjn7D17BpSQcOK4BV8EAWBXyGKQU0zbnTO6Y7RR6La5FciXp1Fad2YGwmWq6jLexXAuagLODxvl0pr_gcQM1byGT26OHzgRYQsgQgcATo48Oneq9vD-mnN4ssrrO7SYD3vJAeJVuic1F6fKIpmCfrbP2WwbgCXClNhpI5dFmv66954vP5hjMJZ1JfXbtUfwGdtQV9ebm_4i7qwJRB6lH96GinBzPx-0s1XQ-H7Hw-MLqIMJphdQeMuXp6QpNe85xKIk8SGTXHiejQeXpWv-bvaoyzHFsJSIGQgai6vPJkl6zKGVBQqDYiDepqe_LOeLfyntb_d8cegEuZu_74LE5T6NUCBMl1ZNiQJHkX1IMmHrnpOXVW2KNBVRZkCF92lQ9UciIwLSLnlkISZFJ1-PfkuBhFOnkIfjvprr_eIlsBwGTmIbqgvpitz8tEpiAA3JEVkgtvL4ysg18pIM9C9885snEqdr-OjBohJRJATCLS8_IWx6gYOmHcz9pFU0dv7UlCExbrNaUqZdGCisNTxb-TN5rVNvt-5oqz3vh-3o1Yvle-kBwE86HeibTEwp89ncyzqL-AE3GXYhnQhf4Cw2Bsp7OD5G7pNntds5Is8rlpiOgV6Tq4gwnhyyfZu8xfNDjygwuDlhmKXOzm2JHX_J8C7IRVzESbMuatzOJWOVWpcJwyOj66KmLWIWM_BbVm00]--></g></svg>