<?xml version="1.0" encoding="us-ascii" standalone="no"?><svg xmlns="http://www.w3.org/2000/svg" xmlns:xlink="http://www.w3.org/1999/xlink" contentStyleType="text/css" height="353px" preserveAspectRatio="none" style="width:581px;height:353px;background:#FFFFFF;" version="1.1" viewBox="0 0 581 353" width="581px" zoomAndPan="magnify"><defs/><g><text fill="#000000" font-family="sans-serif" font-size="14" font-weight="bold" lengthAdjust="spacing" textLength="233" x="172.5" y="32.9951">OCI - Cost Management Tools</text><rect fill="#F8F8FF" height="36.2969" rx="12.5" ry="12.5" style="stroke:#181818;stroke-width:1.5;" width="55" x="10" y="169.8906"/><text fill="#000000" font-family="sans-serif" font-size="14" lengthAdjust="spacing" textLength="35" x="20" y="192.8857">Base</text><rect fill="#D3D3D3" height="36.2969" rx="12.5" ry="12.5" style="stroke:#181818;stroke-width:1.5;" width="79" x="115" y="57.2969"/><text fill="#000000" font-family="sans-serif" font-size="14" lengthAdjust="spacing" textLength="59" x="125" y="80.292">Budgets</text><text fill="#000000" font-family="sans-serif" font-size="14" lengthAdjust="spacing" textLength="238" x="247" y="61.9951">Budget Creation and Management</text><path d="M194,75.4453 L204,75.4453 C219,75.4453 219,57.1484 234,57.1484 L244,57.1484 " fill="none" style="stroke:#181818;stroke-width:1.0;"/><text fill="#000000" font-family="sans-serif" font-size="14" lengthAdjust="spacing" textLength="141" x="247" y="80.292">Alert and Notification</text><path d="M194,75.4453 L204,75.4453 C219,75.4453 219,75.4453 234,75.4453 L244,75.4453 " fill="none" style="stroke:#181818;stroke-width:1.0;"/><text fill="#000000" font-family="sans-serif" font-size="14" lengthAdjust="spacing" textLength="73" x="247" y="98.5889">Monitoring</text><path d="M194,75.4453 L204,75.4453 C219,75.4453 219,93.7422 234,93.7422 L244,93.7422 " fill="none" style="stroke:#181818;stroke-width:1.0;"/><path d="M65,188.0391 L75,188.0391 C90,188.0391 90,75.4453 105,75.4453 L115,75.4453 " fill="none" style="stroke:#181818;stroke-width:1.0;"/><rect fill="#D3D3D3" height="36.2969" rx="12.5" ry="12.5" style="stroke:#181818;stroke-width:1.5;" width="123" x="115" y="113.5938"/><text fill="#000000" font-family="sans-serif" font-size="14" lengthAdjust="spacing" textLength="103" x="125" y="136.5889">Usage Reoorts</text><text fill="#000000" font-family="sans-serif" font-size="14" lengthAdjust="spacing" textLength="141" x="291" y="118.292">Detailed Usage Data</text><path d="M238,131.7422 L248,131.7422 C263,131.7422 263,113.4453 278,113.4453 L288,113.4453 " fill="none" style="stroke:#181818;stroke-width:1.0;"/><text fill="#000000" font-family="sans-serif" font-size="14" lengthAdjust="spacing" textLength="145" x="291" y="136.5889">Analysis and Auditing</text><path d="M238,131.7422 L248,131.7422 C263,131.7422 263,131.7422 278,131.7422 L288,131.7422 " fill="none" style="stroke:#181818;stroke-width:1.0;"/><text fill="#000000" font-family="sans-serif" font-size="14" lengthAdjust="spacing" textLength="74" x="291" y="154.8857">Integration</text><path d="M238,131.7422 L248,131.7422 C263,131.7422 263,150.0391 278,150.0391 L288,150.0391 " fill="none" style="stroke:#181818;stroke-width:1.0;"/><path d="M65,188.0391 L75,188.0391 C90,188.0391 90,131.7422 105,131.7422 L115,131.7422 " fill="none" style="stroke:#181818;stroke-width:1.0;"/><rect fill="#D3D3D3" height="36.2969" rx="12.5" ry="12.5" style="stroke:#181818;stroke-width:1.5;" width="111" x="115" y="169.8906"/><text fill="#000000" font-family="sans-serif" font-size="14" lengthAdjust="spacing" textLength="91" x="125" y="192.8857">Cost Analysis</text><text fill="#000000" font-family="sans-serif" font-size="14" lengthAdjust="spacing" textLength="199" x="279" y="174.5889">Comprehensive Cost Metrics</text><path d="M226,188.0391 L236,188.0391 C251,188.0391 251,169.7422 266,169.7422 L276,169.7422 " fill="none" style="stroke:#181818;stroke-width:1.0;"/><text fill="#000000" font-family="sans-serif" font-size="14" lengthAdjust="spacing" textLength="132" x="279" y="192.8857">Trend Identification</text><path d="M226,188.0391 L236,188.0391 C251,188.0391 251,188.0391 266,188.0391 L276,188.0391 " fill="none" style="stroke:#181818;stroke-width:1.0;"/><text fill="#000000" font-family="sans-serif" font-size="14" lengthAdjust="spacing" textLength="94" x="279" y="211.1826">Graular Filters</text><path d="M226,188.0391 L236,188.0391 C251,188.0391 251,206.3359 266,206.3359 L276,206.3359 " fill="none" style="stroke:#181818;stroke-width:1.0;"/><path d="M65,188.0391 L75,188.0391 C90,188.0391 90,188.0391 105,188.0391 L115,188.0391 " fill="none" style="stroke:#181818;stroke-width:1.0;"/><rect fill="#D3D3D3" height="36.2969" rx="12.5" ry="12.5" style="stroke:#181818;stroke-width:1.5;" width="138" x="115" y="226.1875"/><text fill="#000000" font-family="sans-serif" font-size="14" lengthAdjust="spacing" textLength="118" x="125" y="249.1826">Pricing Calculator</text><text fill="#000000" font-family="sans-serif" font-size="14" lengthAdjust="spacing" textLength="108" x="306" y="230.8857">Cost Estimation</text><path d="M253,244.3359 L263,244.3359 C278,244.3359 278,226.0391 293,226.0391 L303,226.0391 " fill="none" style="stroke:#181818;stroke-width:1.0;"/><text fill="#000000" font-family="sans-serif" font-size="14" lengthAdjust="spacing" textLength="203" x="306" y="249.1826">Comparison and Optimization</text><path d="M253,244.3359 L263,244.3359 C278,244.3359 278,244.3359 293,244.3359 L303,244.3359 " fill="none" style="stroke:#181818;stroke-width:1.0;"/><text fill="#000000" font-family="sans-serif" font-size="14" lengthAdjust="spacing" textLength="130" x="306" y="267.4795">Export and Sharing</text><path d="M253,244.3359 L263,244.3359 C278,244.3359 278,262.6328 293,262.6328 L303,262.6328 " fill="none" style="stroke:#181818;stroke-width:1.0;"/><path d="M65,188.0391 L75,188.0391 C90,188.0391 90,244.3359 105,244.3359 L115,244.3359 " fill="none" style="stroke:#181818;stroke-width:1.0;"/><rect fill="#D3D3D3" height="36.2969" rx="12.5" ry="12.5" style="stroke:#181818;stroke-width:1.5;" width="166" x="115" y="282.4844"/><text fill="#000000" font-family="sans-serif" font-size="14" lengthAdjust="spacing" textLength="142" x="125" y="305.4795">Oracle Cloud Advisor</text><text fill="#000000" font-family="sans-serif" font-size="14" lengthAdjust="spacing" textLength="220" x="334" y="287.1826">Optimization Recommandations</text><path d="M281,300.6328 L291,300.6328 C306,300.6328 306,282.3359 321,282.3359 L331,282.3359 " fill="none" style="stroke:#181818;stroke-width:1.0;"/><text fill="#000000" font-family="sans-serif" font-size="14" lengthAdjust="spacing" textLength="99" x="334" y="305.4795">Best Practices</text><path d="M281,300.6328 L291,300.6328 C306,300.6328 306,300.6328 321,300.6328 L331,300.6328 " fill="none" style="stroke:#181818;stroke-width:1.0;"/><text fill="#000000" font-family="sans-serif" font-size="14" lengthAdjust="spacing" textLength="235" x="334" y="323.7764">Security and Performance Insights</text><path d="M281,300.6328 L291,300.6328 C306,300.6328 306,318.9297 321,318.9297 L331,318.9297 " fill="none" style="stroke:#181818;stroke-width:1.0;"/><path d="M65,188.0391 L75,188.0391 C90,188.0391 90,300.6328 105,300.6328 L115,300.6328 " fill="none" style="stroke:#181818;stroke-width:1.0;"/><text fill="#888888" font-family="sans-serif" font-size="10" lengthAdjust="spacing" textLength="224" x="177" y="338.0635">Dispon&#237;vel em: https://github.com/acnaweb/oci</text><!--SRC=[RLBRRjf047ttLupI5uZ4jIIA_9HW82N21N79IrLLYpsOaUnTQtViXlvJlw8_rh4n5KggVTevPy-PEJkFZfNbZ7ISgTppc3X5k5a6S-X0O1n3gBHAC4FDi3KcTJVUmHX62nDokT5_VfUO0cO-79bpv_Tw2V6ns7SZa_LKfDLFtFTCH9vt- -tJx47Ex3kCbKCfI6L1oP6VhJf9iOWJP2Vbsn_D1GABYibeK3g-wkJCUKhHSeryDKm7Ychg6GkD9ZQMTFB1P-T41TPeZBsuJP0LfHWts4InQYoqIa-ENEtoLCJ4bM8DpJLZOi-Mxotgu2vlp_J0PBd58sf79JR98bkA6dnhKIpciKptRXIHB59bOKQfnEu-cAr4HBg2GAMH46NgYwDuJ1rJTYLMjQ4ikIRIPIum_ReYJDzoqwIwEQh_1hYqAf8b2L9JI2XnAMeMpg-lzIHYsO5CbEhhvMDHkbg90bE4JMs3KM69JxNh2kt1M7aMeMJiAbkP-L7I-RUagrHfteKBA2MFocdG7VQ7e-xdrlPOm0ptCBY3mRq_wllzEnYljr31RQ_rl5gKGt2ci28UavFyzqNLNDjxKQM2TI7fP-X3TMjjmpPiffSYJ7L9rkXw_rvUmpC9lXZUv8PhylseCoQMSQmq1g-XDy63_9tyWevCB57wiDlEEW_UGkcaa4tp0RKN636m9y4sVm40]--></g></svg>