<?xml version="1.0" encoding="us-ascii" standalone="no"?><svg xmlns="http://www.w3.org/2000/svg" xmlns:xlink="http://www.w3.org/1999/xlink" contentStyleType="text/css" height="304px" preserveAspectRatio="none" style="width:758px;height:304px;background:#FFFFFF;" version="1.1" viewBox="0 0 758 304" width="758px" zoomAndPan="magnify"><defs/><g><text fill="#000000" font-family="sans-serif" font-size="14" font-weight="bold" lengthAdjust="spacing" textLength="150" x="302.5" y="32.9951">OCI - Pricing model</text><rect fill="#F8F8FF" height="36.2969" rx="12.5" ry="12.5" style="stroke:#181818;stroke-width:1.5;" width="113" x="10" y="145.6133"/><text fill="#000000" font-family="sans-serif" font-size="14" lengthAdjust="spacing" textLength="93" x="20" y="168.6084">Pricing model</text><rect fill="#D3D3D3" height="36.2969" rx="12.5" ry="12.5" style="stroke:#181818;stroke-width:1.5;" width="70" x="173" y="57.2969"/><text fill="#000000" font-family="sans-serif" font-size="14" lengthAdjust="spacing" textLength="50" x="183" y="80.292">Models</text><text fill="#000000" font-family="sans-serif" font-size="14" lengthAdjust="spacing" textLength="147" x="296" y="61.9951">Pay as you go (PAYG)</text><path d="M243,75.4453 L253,75.4453 C268,75.4453 268,57.1484 283,57.1484 L293,57.1484 " fill="none" style="stroke:#181818;stroke-width:1.0;"/><text fill="#000000" font-family="sans-serif" font-size="14" lengthAdjust="spacing" textLength="214" x="296" y="80.292">Monthly Flex (Universal Credits)</text><path d="M243,75.4453 L253,75.4453 C268,75.4453 268,75.4453 283,75.4453 L293,75.4453 " fill="none" style="stroke:#181818;stroke-width:1.0;"/><text fill="#000000" font-family="sans-serif" font-size="14" lengthAdjust="spacing" textLength="215" x="296" y="98.5889">Bring Your Own License (BYOL)</text><path d="M243,75.4453 L253,75.4453 C268,75.4453 268,93.7422 283,93.7422 L293,93.7422 " fill="none" style="stroke:#181818;stroke-width:1.0;"/><path d="M123,163.7617 L133,163.7617 C148,163.7617 148,75.4453 163,75.4453 L173,75.4453 " fill="none" style="stroke:#181818;stroke-width:1.0;"/><rect fill="#D3D3D3" height="36.2969" rx="12.5" ry="12.5" style="stroke:#181818;stroke-width:1.5;" width="167" x="173" y="113.5938"/><text fill="#000000" font-family="sans-serif" font-size="14" lengthAdjust="spacing" textLength="147" x="183" y="136.5889">Pay as you go (PAYG)</text><text fill="#000000" font-family="sans-serif" font-size="14" lengthAdjust="spacing" textLength="136" x="393" y="127.4404">Compute, database</text><path d="M340,131.7422 L350,131.7422 C365,131.7422 365,122.5938 380,122.5938 L390,122.5938 " fill="none" style="stroke:#181818;stroke-width:1.0;"/><text fill="#000000" font-family="sans-serif" font-size="14" lengthAdjust="spacing" textLength="106" x="393" y="145.7373">Not discounted</text><path d="M340,131.7422 L350,131.7422 C365,131.7422 365,140.8906 380,140.8906 L390,140.8906 " fill="none" style="stroke:#181818;stroke-width:1.0;"/><path d="M123,163.7617 L133,163.7617 C148,163.7617 148,131.7422 163,131.7422 L173,131.7422 " fill="none" style="stroke:#181818;stroke-width:1.0;"/><rect fill="#D3D3D3" height="36.2969" rx="12.5" ry="12.5" style="stroke:#181818;stroke-width:1.5;" width="238" x="173" y="177.6328"/><text fill="#000000" font-family="sans-serif" font-size="14" lengthAdjust="spacing" textLength="214" x="183" y="200.6279">Monthly Flex (Universal Credits)</text><text fill="#000000" font-family="sans-serif" font-size="14" lengthAdjust="spacing" textLength="86" x="464" y="164.0342">Prepaid card</text><path d="M411,195.7813 L421,195.7813 C436,195.7813 436,159.1875 451,159.1875 L461,159.1875 " fill="none" style="stroke:#181818;stroke-width:1.0;"/><text fill="#000000" font-family="sans-serif" font-size="14" lengthAdjust="spacing" textLength="156" x="464" y="182.3311">&gt; $1000 &gt; 12 months</text><path d="M411,195.7813 L421,195.7813 C436,195.7813 436,177.4844 451,177.4844 L461,177.4844 " fill="none" style="stroke:#181818;stroke-width:1.0;"/><text fill="#000000" font-family="sans-serif" font-size="14" lengthAdjust="spacing" textLength="131" x="464" y="200.6279">&gt; 33%-60% saving</text><path d="M411,195.7813 L421,195.7813 C436,195.7813 436,195.7813 451,195.7813 L461,195.7813 " fill="none" style="stroke:#181818;stroke-width:1.0;"/><text fill="#000000" font-family="sans-serif" font-size="14" lengthAdjust="spacing" textLength="279" x="464" y="218.9248">Discount based on size of deal and term</text><path d="M411,195.7813 L421,195.7813 C436,195.7813 436,214.0781 451,214.0781 L461,214.0781 " fill="none" style="stroke:#181818;stroke-width:1.0;"/><text fill="#000000" font-family="sans-serif" font-size="14" lengthAdjust="spacing" textLength="231" x="464" y="237.2217">Usage is consumed from monthly</text><path d="M411,195.7813 L421,195.7813 C436,195.7813 436,232.375 451,232.375 L461,232.375 " fill="none" style="stroke:#181818;stroke-width:1.0;"/><path d="M123,163.7617 L133,163.7617 C148,163.7617 148,195.7813 163,195.7813 L173,195.7813 " fill="none" style="stroke:#181818;stroke-width:1.0;"/><rect fill="#D3D3D3" height="36.2969" rx="12.5" ry="12.5" style="stroke:#181818;stroke-width:1.5;" width="235" x="173" y="233.9297"/><text fill="#000000" font-family="sans-serif" font-size="14" lengthAdjust="spacing" textLength="215" x="183" y="256.9248">Bring Your Own License (BYOL)</text><text fill="#000000" font-family="sans-serif" font-size="14" lengthAdjust="spacing" textLength="285" x="461" y="256.9248">Apply your current on-premisses licences</text><path d="M408,252.0781 L418,252.0781 C433,252.0781 433,252.0781 448,252.0781 L458,252.0781 " fill="none" style="stroke:#181818;stroke-width:1.0;"/><path d="M123,163.7617 L133,163.7617 C148,163.7617 148,252.0781 163,252.0781 L173,252.0781 " fill="none" style="stroke:#181818;stroke-width:1.0;"/><text fill="#888888" font-family="sans-serif" font-size="10" lengthAdjust="spacing" textLength="224" x="265.5" y="289.5088">Dispon&#237;vel em: https://github.com/acnaweb/oci</text><!--SRC=[VLBRRjf057pVhnYbZGHH0NC9YlnG9K186ja51OY4ggXQx8DPoTwrTjTEtN_gL_J7kexXeKeR-S7opEoPERE-DfPhcmaPPpndp0gR4iuMqo_eOAb596I2JCMKdh6zKfOqPiBaIlx-LL8AodmShCsDt-ibmXwANJTIMOz7ah_GhgSYmTZ5jm_pA_VCd_yUw1X71I8vs3lDgsU4DMeSUl4TIrw16rIgGABGMjvixzeD4off3sc5UKe_qDf8KP8sFCLKKooiEQecklRPga9ZyI8HY8Ya8RGcsqNGVkFyVxUfolB2qYV4tF8TDzJ0NvL5B4oa2caf_iScxsV4SKbDEHSn8gxZ1lcCZttFyzoxFt0jkIdcH0o7vvsnTmx3IxTQWywE4L0dYw4aZFX9K7l4vEouZE5kB6l46yCJWZ28b3H5vlHxhRB69QtUxF1-WwyJR_BSBLdLagZGcbmG9JkvfamOGmPfVIOYmnYx9lU3dNwoPSgbtOG1wbg4Iztl3hp1g3jihGy5vhH3_nBziJ_oVEyIaySrQhhDMdVBe1p0ECE8wlwj5hl2kWbjzi1BZaVNXSZ8H_tLMeTjh6vF86vbARIIcOl97fx2HeHxPLUvig_YyQWp4HOhqYuOda8sepqlKkkEHYfsTVZOhEUTAnPmcHIkJHyasRI-0LqvRlK7]--></g></svg>