<?xml version="1.0" encoding="us-ascii" standalone="no"?><svg xmlns="http://www.w3.org/2000/svg" xmlns:xlink="http://www.w3.org/1999/xlink" contentStyleType="text/css" height="818px" preserveAspectRatio="none" style="width:946px;height:818px;background:#FFFFFF;" version="1.1" viewBox="0 0 946 818" width="946px" zoomAndPan="magnify"><defs/><g><text fill="#000000" font-family="sans-serif" font-size="14" font-weight="bold" lengthAdjust="spacing" textLength="184" x="379.5" y="32.9951">OCI - Storage Services)</text><rect fill="#F8F8FF" height="36.2969" rx="12.5" ry="12.5" style="stroke:#181818;stroke-width:1.5;" width="136" x="10" y="402.2344"/><text fill="#000000" font-family="sans-serif" font-size="14" lengthAdjust="spacing" textLength="116" x="20" y="425.2295">Storage Services</text><rect fill="#D3D3D3" height="36.2969" rx="12.5" ry="12.5" style="stroke:#181818;stroke-width:1.5;" width="123" x="196" y="165.375"/><text fill="#000000" font-family="sans-serif" font-size="14" lengthAdjust="spacing" textLength="103" x="206" y="188.3701">Object Storage</text><text fill="#000000" font-family="sans-serif" font-size="14" lengthAdjust="spacing" textLength="136" x="372" y="61.292">UC: Public Endpoint</text><path d="M319,183.5234 L329,183.5234 C344,183.5234 344,56.4453 359,56.4453 L369,56.4453 " fill="none" style="stroke:#181818;stroke-width:1.0;"/><text fill="#000000" font-family="sans-serif" font-size="14" lengthAdjust="spacing" textLength="160" x="372" y="79.5889">Storage type: unlimited</text><path d="M319,183.5234 L329,183.5234 C344,183.5234 344,74.7422 359,74.7422 L369,74.7422 " fill="none" style="stroke:#181818;stroke-width:1.0;"/><text fill="#000000" font-family="sans-serif" font-size="14" lengthAdjust="spacing" textLength="158" x="372" y="97.8857">Logs, content, big data</text><path d="M319,183.5234 L329,183.5234 C344,183.5234 344,93.0391 359,93.0391 L369,93.0391 " fill="none" style="stroke:#181818;stroke-width:1.0;"/><text fill="#000000" font-family="sans-serif" font-size="14" lengthAdjust="spacing" textLength="170" x="372" y="116.1826">Durability &amp; Redundancy</text><path d="M319,183.5234 L329,183.5234 C344,183.5234 344,111.3359 359,111.3359 L369,111.3359 " fill="none" style="stroke:#181818;stroke-width:1.0;"/><text fill="#000000" font-family="sans-serif" font-size="14" lengthAdjust="spacing" textLength="66" x="372" y="134.4795">Scalability</text><path d="M319,183.5234 L329,183.5234 C344,183.5234 344,129.6328 359,129.6328 L369,129.6328 " fill="none" style="stroke:#181818;stroke-width:1.0;"/><text fill="#000000" font-family="sans-serif" font-size="14" lengthAdjust="spacing" textLength="88" x="372" y="152.7764">Performance</text><path d="M319,183.5234 L329,183.5234 C344,183.5234 344,147.9297 359,147.9297 L369,147.9297 " fill="none" style="stroke:#181818;stroke-width:1.0;"/><text fill="#000000" font-family="sans-serif" font-size="14" lengthAdjust="spacing" textLength="121" x="372" y="171.0732">Data Consistency</text><path d="M319,183.5234 L329,183.5234 C344,183.5234 344,166.2266 359,166.2266 L369,166.2266 " fill="none" style="stroke:#181818;stroke-width:1.0;"/><text fill="#000000" font-family="sans-serif" font-size="14" lengthAdjust="spacing" textLength="249" x="372" y="189.3701">Security/Encryption: at rest AES-256</text><path d="M319,183.5234 L329,183.5234 C344,183.5234 344,184.5234 359,184.5234 L369,184.5234 " fill="none" style="stroke:#181818;stroke-width:1.0;"/><text fill="#000000" font-family="sans-serif" font-size="14" lengthAdjust="spacing" textLength="230" x="372" y="207.667">Security/Encryption: in transit TLS</text><path d="M319,183.5234 L329,183.5234 C344,183.5234 344,202.8203 359,202.8203 L369,202.8203 " fill="none" style="stroke:#181818;stroke-width:1.0;"/><text fill="#000000" font-family="sans-serif" font-size="14" lengthAdjust="spacing" textLength="84" x="372" y="225.9639">Security/IAM</text><path d="M319,183.5234 L329,183.5234 C344,183.5234 344,221.1172 359,221.1172 L369,221.1172 " fill="none" style="stroke:#181818;stroke-width:1.0;"/><text fill="#000000" font-family="sans-serif" font-size="14" lengthAdjust="spacing" textLength="344" x="372" y="244.2607">Data Retrival: Standard (frequently accessad data)</text><text fill="#000000" font-family="sans-serif" font-size="14" lengthAdjust="spacing" textLength="223" x="372" y="260.5576">Archive storage (longer retrieval)</text><path d="M319,183.5234 L329,183.5234 C344,183.5234 344,247.5625 359,247.5625 L369,247.5625 " fill="none" style="stroke:#181818;stroke-width:1.0;"/><text fill="#000000" font-family="sans-serif" font-size="14" lengthAdjust="spacing" textLength="482" x="372" y="278.8545">Versioning: object versioning, protection against overwrites or deletes</text><path d="M319,183.5234 L329,183.5234 C344,183.5234 344,274.0078 359,274.0078 L369,274.0078 " fill="none" style="stroke:#181818;stroke-width:1.0;"/><text fill="#000000" font-family="sans-serif" font-size="14" lengthAdjust="spacing" textLength="207" x="372" y="297.1514">SDKs &amp; Tooling: REST API, CLI</text><path d="M319,183.5234 L329,183.5234 C344,183.5234 344,292.3047 359,292.3047 L369,292.3047 " fill="none" style="stroke:#181818;stroke-width:1.0;"/><text fill="#000000" font-family="sans-serif" font-size="14" lengthAdjust="spacing" textLength="312" x="372" y="315.4482">Multi-part upload: allowing for parallel uploads</text><path d="M319,183.5234 L329,183.5234 C344,183.5234 344,310.6016 359,310.6016 L369,310.6016 " fill="none" style="stroke:#181818;stroke-width:1.0;"/><path d="M146,420.3828 L156,420.3828 C171,420.3828 171,183.5234 186,183.5234 L196,183.5234 " fill="none" style="stroke:#181818;stroke-width:1.0;"/><rect fill="#D3D3D3" height="36.2969" rx="12.5" ry="12.5" style="stroke:#181818;stroke-width:1.5;" width="101" x="196" y="429.6797"/><text fill="#000000" font-family="sans-serif" font-size="14" lengthAdjust="spacing" textLength="81" x="206" y="452.6748">File Storage</text><text fill="#000000" font-family="sans-serif" font-size="14" lengthAdjust="spacing" textLength="85" x="350" y="333.7451">UC: Patches</text><path d="M297,447.8281 L307,447.8281 C322,447.8281 322,328.8984 337,328.8984 L347,328.8984 " fill="none" style="stroke:#181818;stroke-width:1.0;"/><text fill="#000000" font-family="sans-serif" font-size="14" lengthAdjust="spacing" textLength="297" x="350" y="352.042">VMs access one NFS (Network File System)</text><path d="M297,447.8281 L307,447.8281 C322,447.8281 322,347.1953 337,347.1953 L347,347.1953 " fill="none" style="stroke:#181818;stroke-width:1.0;"/><text fill="#000000" font-family="sans-serif" font-size="14" lengthAdjust="spacing" textLength="205" x="350" y="370.3389">Can be mounted to Instances</text><path d="M297,447.8281 L307,447.8281 C322,447.8281 322,365.4922 337,365.4922 L347,365.4922 " fill="none" style="stroke:#181818;stroke-width:1.0;"/><text fill="#000000" font-family="sans-serif" font-size="14" lengthAdjust="spacing" textLength="113" x="350" y="388.6357">Increase spaces</text><path d="M297,447.8281 L307,447.8281 C322,447.8281 322,383.7891 337,383.7891 L347,383.7891 " fill="none" style="stroke:#181818;stroke-width:1.0;"/><text fill="#000000" font-family="sans-serif" font-size="14" lengthAdjust="spacing" textLength="97" x="350" y="406.9326">Scalable: auto</text><path d="M297,447.8281 L307,447.8281 C322,447.8281 322,402.0859 337,402.0859 L347,402.0859 " fill="none" style="stroke:#181818;stroke-width:1.0;"/><text fill="#000000" font-family="sans-serif" font-size="14" lengthAdjust="spacing" textLength="584" x="350" y="425.2295">Redundancy: 5-way replicated storage in diferente Fault DomainStereotypeFontColor</text><path d="M297,447.8281 L307,447.8281 C322,447.8281 322,420.3828 337,420.3828 L347,420.3828 " fill="none" style="stroke:#181818;stroke-width:1.0;"/><text fill="#000000" font-family="sans-serif" font-size="14" lengthAdjust="spacing" textLength="316" x="350" y="443.5264">Snapshot: Point in Time image + auto backup</text><path d="M297,447.8281 L307,447.8281 C322,447.8281 322,438.6797 337,438.6797 L347,438.6797 " fill="none" style="stroke:#181818;stroke-width:1.0;"/><text fill="#000000" font-family="sans-serif" font-size="14" lengthAdjust="spacing" textLength="189" x="350" y="461.8232">Encryption: at rest AES-256</text><path d="M297,447.8281 L307,447.8281 C322,447.8281 322,456.9766 337,456.9766 L347,456.9766 " fill="none" style="stroke:#181818;stroke-width:1.0;"/><text fill="#000000" font-family="sans-serif" font-size="14" lengthAdjust="spacing" textLength="170" x="350" y="480.1201">Encryption: in transit TLS</text><path d="M297,447.8281 L307,447.8281 C322,447.8281 322,475.2734 337,475.2734 L347,475.2734 " fill="none" style="stroke:#181818;stroke-width:1.0;"/><text fill="#000000" font-family="sans-serif" font-size="14" lengthAdjust="spacing" textLength="108" x="350" y="498.417">NFS v3 Protocol</text><path d="M297,447.8281 L307,447.8281 C322,447.8281 322,493.5703 337,493.5703 L347,493.5703 " fill="none" style="stroke:#181818;stroke-width:1.0;"/><text fill="#000000" font-family="sans-serif" font-size="14" lengthAdjust="spacing" textLength="115" x="350" y="516.7139">POSIX-Compliant</text><path d="M297,447.8281 L307,447.8281 C322,447.8281 322,511.8672 337,511.8672 L347,511.8672 " fill="none" style="stroke:#181818;stroke-width:1.0;"/><text fill="#000000" font-family="sans-serif" font-size="14" lengthAdjust="spacing" textLength="204" x="350" y="535.0107">Integrates with other services</text><path d="M297,447.8281 L307,447.8281 C322,447.8281 322,530.1641 337,530.1641 L347,530.1641 " fill="none" style="stroke:#181818;stroke-width:1.0;"/><text fill="#000000" font-family="sans-serif" font-size="14" lengthAdjust="spacing" textLength="211" x="350" y="553.3076">Monitoring and Metrics: alarms</text><path d="M297,447.8281 L307,447.8281 C322,447.8281 322,548.4609 337,548.4609 L347,548.4609 " fill="none" style="stroke:#181818;stroke-width:1.0;"/><text fill="#000000" font-family="sans-serif" font-size="14" lengthAdjust="spacing" textLength="173" x="350" y="571.6045">Cross Region Replication</text><path d="M297,447.8281 L307,447.8281 C322,447.8281 322,566.7578 337,566.7578 L347,566.7578 " fill="none" style="stroke:#181818;stroke-width:1.0;"/><path d="M146,420.3828 L156,420.3828 C171,420.3828 171,447.8281 186,447.8281 L196,447.8281 " fill="none" style="stroke:#181818;stroke-width:1.0;"/><rect fill="#D3D3D3" height="36.2969" rx="12.5" ry="12.5" style="stroke:#181818;stroke-width:1.5;" width="116" x="196" y="666.5391"/><text fill="#000000" font-family="sans-serif" font-size="14" lengthAdjust="spacing" textLength="96" x="206" y="689.5342">Block Storage</text><text fill="#000000" font-family="sans-serif" font-size="14" lengthAdjust="spacing" textLength="109" x="365" y="589.9014">UC Boot + Data</text><path d="M312,684.6875 L322,684.6875 C337,684.6875 337,585.0547 352,585.0547 L362,585.0547 " fill="none" style="stroke:#181818;stroke-width:1.0;"/><text fill="#000000" font-family="sans-serif" font-size="14" lengthAdjust="spacing" textLength="143" x="365" y="608.1982">Atached to Compute</text><path d="M312,684.6875 L322,684.6875 C337,684.6875 337,603.3516 352,603.3516 L362,603.3516 " fill="none" style="stroke:#181818;stroke-width:1.0;"/><text fill="#000000" font-family="sans-serif" font-size="14" lengthAdjust="spacing" textLength="240" x="365" y="626.4951">Performance: IOPS (IO per second)</text><path d="M312,684.6875 L322,684.6875 C337,684.6875 337,621.6484 352,621.6484 L362,621.6484 " fill="none" style="stroke:#181818;stroke-width:1.0;"/><text fill="#000000" font-family="sans-serif" font-size="14" lengthAdjust="spacing" textLength="135" x="365" y="644.792">Availability:99.995%</text><path d="M312,684.6875 L322,684.6875 C337,684.6875 337,639.9453 352,639.9453 L362,639.9453 " fill="none" style="stroke:#181818;stroke-width:1.0;"/><text fill="#000000" font-family="sans-serif" font-size="14" lengthAdjust="spacing" textLength="207" x="365" y="663.0889">Encryption: all by default / AES</text><path d="M312,684.6875 L322,684.6875 C337,684.6875 337,658.2422 352,658.2422 L362,658.2422 " fill="none" style="stroke:#181818;stroke-width:1.0;"/><text fill="#000000" font-family="sans-serif" font-size="14" lengthAdjust="spacing" textLength="326" x="365" y="681.3857">Backup &amp; Cloning: automatic to Object Storage</text><path d="M312,684.6875 L322,684.6875 C337,684.6875 337,676.5391 352,676.5391 L362,676.5391 " fill="none" style="stroke:#181818;stroke-width:1.0;"/><text fill="#000000" font-family="sans-serif" font-size="14" lengthAdjust="spacing" textLength="196" x="365" y="699.6826">Integration: Tight integration</text><path d="M312,684.6875 L322,684.6875 C337,684.6875 337,694.8359 352,694.8359 L362,694.8359 " fill="none" style="stroke:#181818;stroke-width:1.0;"/><text fill="#000000" font-family="sans-serif" font-size="14" lengthAdjust="spacing" textLength="280" x="365" y="717.9795">Volume groups (VGB): Grouping multiple</text><text fill="#000000" font-family="sans-serif" font-size="14" lengthAdjust="spacing" textLength="194" x="365" y="734.2764">block volumes as single unit</text><path d="M312,684.6875 L322,684.6875 C337,684.6875 337,721.2813 352,721.2813 L362,721.2813 " fill="none" style="stroke:#181818;stroke-width:1.0;"/><text fill="#000000" font-family="sans-serif" font-size="14" lengthAdjust="spacing" textLength="332" x="365" y="752.5732">Volume groups (VGB): Manage, backup or clone</text><path d="M312,684.6875 L322,684.6875 C337,684.6875 337,747.7266 352,747.7266 L362,747.7266 " fill="none" style="stroke:#181818;stroke-width:1.0;"/><text fill="#000000" font-family="sans-serif" font-size="14" lengthAdjust="spacing" textLength="173" x="365" y="770.8701">Cross Region Replication</text><path d="M312,684.6875 L322,684.6875 C337,684.6875 337,766.0234 352,766.0234 L362,766.0234 " fill="none" style="stroke:#181818;stroke-width:1.0;"/><text fill="#000000" font-family="sans-serif" font-size="14" lengthAdjust="spacing" textLength="315" x="365" y="789.167">Types: Balanced + HP/UHP High Performance</text><path d="M312,684.6875 L322,684.6875 C337,684.6875 337,784.3203 352,784.3203 L362,784.3203 " fill="none" style="stroke:#181818;stroke-width:1.0;"/><path d="M146,420.3828 L156,420.3828 C171,420.3828 171,684.6875 186,684.6875 L196,684.6875 " fill="none" style="stroke:#181818;stroke-width:1.0;"/><text fill="#888888" font-family="sans-serif" font-size="10" lengthAdjust="spacing" textLength="224" x="359.5" y="802.751">Dispon&#237;vel em: https://github.com/acnaweb/oci</text><!--SRC=[XLNTRjis5BxNKnnqs61tSPoaIT3eglw94tTsOrXEC60j1efYP2uKgP6K33_Kdc8lje-Id6rDqS0t5i_XqJdVpz47vvdrXTHPmSeeyj8hGM_k9dCQKEADPRcWHDXQSk7wRw97OxomD9MkDFhllsgXI1GnRRqlNJmSvj9lg_IOcsB8k6OxaGuDbr7qzhSVPk_nctrvKHH1H1Sot_eRo_PVw2xzGt1_o4FqxUzqFubfLQLAShhMMMcazctWKCtlIn5JfPKif1TP6roOt1qHDzeBxOyebJbbpBCsEAqiIwMIVay_qLfabSwOvlkkB6UgYxO7As4VZIsGqNKqHI6Q6EsaG_NdUu9N5fU6rvhRVUcbqJ4nJrOuJwFhP71sSVcTJAd9MuQQdZQBvAl4-MZvdrUlXRUoPYe610ojsunwZrRyMM5KjIV60QrZMJDm_xCUMRwLjI3NuTLJHkSWqeOo0dNwRUq7OHrQaJgFoRH4rCz7HrHQqCz3iyHo9ZMcCeZlqA1mP2nbGWdyxLgV_k80xiOOrHHSNoSR6gtcHpHPpDkKPQMy79IG85MbCYm3N4gP7V89W1CYU8RAskXBjSmazFfIAyppxQ6DXwNhy22Z1NsQ9TJx9FpEsAVk-XuS5Xq24wOf5LIO2hB9o1kQOyn0V5Tk3i84Sy2oPC-7hM0KDCWgN6aF_rLLJ1U37Ti3xX8QPg7mWGbmdib7OS6Re1a37ZGr1R1DO3HXWh1dKF34A6ExTsbMkgtn63CO8LJOo0ALYb3lvxQ3bF6dgcmll2h6rpGO8AlVqGhi6svKPucxPFxhO68AZCGEVfnZYjooe8OTTW4PluNAtC7hBUSG4uOF54Evj0mIv2uGpspHvKoi0LrhaGUfhJlKyFy5_sDb-DFN0g0nrXIGc3wxVUGP1D7G6Jgkl7ZXwvZcToj8Otv7PTCp5aVMYM9KCtbO2F7LrV7LrSMFty1MAKhtyC1ZG-CmWDncZHisu8M9wimLI2em4WyjVMlb7P1iAc_2mA3c-QXJjb4LYC-jgKf7lOURSJ-cc_0Km2s2jqhe-xDE6vJg9XrcSEIGW4W59hvJQiaq-Zdgn1JypT6_U8MY9hg1Ri7f6AG2smnatAw6zxShkiKe_rkdqGU1Zy_X0xH2lhzVBWvhXqwFpqxEpe_VzJRRYcOYfTCBEhsCpq_YamiQhpSKmlseTxDQr6VaJ6MvWACSH9LMePz-z97LM9ZmCrmIKtZgRPPzIguFXs2nbjRe0YQCFZuisoIwDJufZM-IByy7OrWYVBKWZeTbDErOXW1Crb1wlvaDtaSBflCAgCKaT3G9MyJ2_lV9Fm00]--></g></svg>